<svg width="446" height="100" viewBox="0 0 446 100" fill="none" xmlns="http://www.w3.org/2000/svg">
<path d="M62.9848 6.62732H8.99511C4.02725 6.62732 0 10.6546 0 15.6224V69.6121C0 74.58 4.02725 78.6073 8.99511 78.6073H62.9848C67.9527 78.6073 71.9799 74.58 71.9799 69.6121V15.6224C71.9799 10.6546 67.9527 6.62732 62.9848 6.62732Z" fill="#0099D4"/>
<path d="M57.576 55.2149H52.1802V60.6107H57.576V55.2149Z" fill="#C9E8FB"/>
<path d="M46.7844 24.6239V29.7721C43.5405 26.5918 39.0969 24.6239 34.1899 24.6239C24.249 24.6239 16.1934 32.6795 16.1934 42.6205C16.1934 52.5614 24.249 60.617 34.1899 60.617C39.2239 60.617 43.7691 58.5476 47.0383 55.2212H52.1865V24.6302H46.7907L46.7844 24.6239ZM34.1899 55.2149C27.2325 55.2149 21.5955 49.5779 21.5955 42.6205C21.5955 35.6631 27.2325 30.026 34.1899 30.026C41.1473 30.026 46.7844 35.6631 46.7844 42.6205C46.7844 49.5779 41.1473 55.2149 34.1899 55.2149Z" fill="#C9E8FB"/>
<path d="M98.9209 6.61462H145.712V17.2158H111.953V36.9644H142.697V47.6671H111.953V67.9998H146.588V78.6009H98.9209V6.61462Z" fill="black"/>
<path d="M156.319 26.0712H166.92L167.6 32.0066H168.184C171.942 29.6071 175.236 27.855 178.061 26.7505C180.88 25.6459 183.654 25.0936 186.377 25.0936C192.344 25.0936 196.363 27.4297 198.438 32.0955H198.927C202.622 29.6324 205.916 27.8487 208.798 26.7441C211.68 25.6396 214.486 25.0873 217.216 25.0873C221.558 25.0873 224.903 26.3061 227.239 28.7374C229.575 31.1687 230.743 34.7172 230.743 39.3893V78.5945H217.996V43.7694C217.996 40.9192 217.476 38.8751 216.441 37.6436C215.4 36.4121 213.75 35.7964 211.477 35.7964C209.985 35.7964 208.221 36.1518 206.177 36.8692C204.132 37.5865 202.044 38.5577 199.905 39.7892V78.6072H187.158V43.7821C187.158 40.9319 186.637 38.8878 185.603 37.6563C184.562 36.4248 182.911 35.809 180.639 35.809C179.083 35.809 177.268 36.1645 175.192 36.8819C173.116 37.5992 171.04 38.6022 168.965 39.8972V78.6136H156.319V26.0712Z" fill="black"/>
<path d="M242.608 26.0712H253.895L254.771 32.1018H255.355C258.859 27.4297 263.95 25.1 270.628 25.1C284.117 25.1 290.865 33.7904 290.865 51.1712C290.865 60.1854 288.612 67.1745 284.105 72.1386C279.598 77.1028 272.996 79.5785 264.305 79.5785C262.814 79.5785 261.303 79.515 259.779 79.3817C258.256 79.2484 256.815 79.0897 255.45 78.8929V100H242.608V26.0712ZM264.591 70.5326C266.927 70.5326 268.933 70.2279 270.622 69.6058C272.31 68.99 273.688 67.9553 274.754 66.4953C275.821 65.0352 276.62 63.1562 277.135 60.8519C277.655 58.5539 277.915 55.6783 277.915 52.244C277.915 49.0002 277.706 46.2642 277.281 44.0234C276.855 41.7889 276.208 39.986 275.338 38.6276C274.462 37.2627 273.313 36.2788 271.885 35.663C270.457 35.0473 268.736 34.7362 266.73 34.7362C263.36 34.7362 260.636 35.7392 258.56 37.7515C256.485 39.7638 255.45 42.9442 255.45 47.2862V69.4661C256.745 69.7899 258.173 70.0501 259.728 70.2469C261.284 70.4437 262.902 70.5389 264.591 70.5389V70.5326Z" fill="black"/>
<path d="M323.354 79.5785C315.115 79.5785 308.875 77.2615 304.628 72.6211C300.381 67.987 298.254 61.2264 298.254 52.3392C298.254 43.452 300.381 36.6914 304.628 32.0574C308.875 27.4233 315.115 25.1 323.354 25.1C331.594 25.1 337.733 27.417 341.986 32.0574C346.233 36.6978 348.359 43.4584 348.359 52.3392C348.359 61.2201 346.233 67.987 341.986 72.6211C337.739 77.2615 331.531 79.5785 323.354 79.5785ZM323.354 69.555C325.494 69.555 327.328 69.2503 328.852 68.6282C330.375 68.0124 331.626 67.0222 332.597 65.6637C333.568 64.3052 334.286 62.5341 334.736 60.3631C335.187 58.1921 335.416 55.5132 335.416 52.3392C335.416 49.1652 335.187 46.4864 334.736 44.3154C334.279 42.1443 333.568 40.3733 332.597 39.0148C331.626 37.6563 330.375 36.666 328.852 36.0503C327.328 35.4345 325.494 35.1235 323.354 35.1235C321.215 35.1235 319.285 35.4345 317.762 36.0503C316.238 36.666 314.988 37.6563 314.016 39.0148C313.045 40.3796 312.328 42.1443 311.877 44.3154C311.42 46.4864 311.198 49.1652 311.198 52.3392C311.198 55.5132 311.426 58.1921 311.877 60.3631C312.328 62.5341 313.045 64.3052 314.016 65.6637C314.988 67.0285 316.238 68.0124 317.762 68.6282C319.285 69.2439 321.152 69.555 323.354 69.555Z" fill="black"/>
<path d="M358.18 0H371.022V78.6073H358.18V0Z" fill="black"/>
<path d="M389.697 17.1205C387.171 17.1205 385.317 16.5365 384.149 15.3685C382.981 14.2004 382.397 12.3849 382.397 9.92189C382.397 7.45887 382.962 5.65604 384.098 4.52609C385.235 3.39615 387.094 2.82483 389.691 2.82483C392.287 2.82483 394.166 3.40884 395.334 4.57688C396.502 5.74491 397.086 7.5287 397.086 9.92824C397.086 12.3278 396.502 14.2068 395.334 15.3748C394.166 16.5429 392.287 17.1269 389.691 17.1269L389.697 17.1205ZM383.273 26.0712H396.115V78.6009H383.273V26.0712Z" fill="black"/>
<path d="M424.135 79.6737C418.948 79.6737 412.912 78.8929 406.043 77.3377V67.8982C409.153 68.679 412.188 69.2947 415.14 69.7455C418.091 70.2025 420.897 70.4247 423.557 70.4247C429.721 70.4247 432.8 68.3172 432.8 64.1021C432.8 62.0263 432.07 60.4901 430.61 59.4807C429.15 58.4778 426.96 57.716 424.046 57.1955C422.167 56.8717 420.186 56.4845 418.111 56.0274C416.035 55.5767 414.137 54.8086 412.423 53.7422C410.702 52.6693 409.293 51.1522 408.189 49.1716C407.084 47.191 406.532 44.4868 406.532 41.0462C406.532 35.9868 408.284 32.032 411.788 29.1754C415.292 26.3188 420.186 24.8969 426.477 24.8969C428.813 24.8969 431.257 25.0619 433.822 25.3856C436.386 25.7094 439.478 26.1982 443.115 26.8457L442.728 36.5708C439.421 35.8598 436.615 35.3393 434.311 35.0156C432.006 34.6918 429.95 34.5268 428.134 34.5268C425.023 34.5268 422.668 35.06 421.081 36.1328C419.494 37.2056 418.701 38.7101 418.701 40.6589C418.701 42.995 419.577 44.582 421.329 45.4263C423.081 46.2706 425.481 46.9498 428.528 47.4703C430.864 47.8576 433.035 48.3971 435.047 49.0764C437.059 49.7556 438.824 50.6824 440.348 51.8504C441.871 53.0185 443.052 54.523 443.896 56.3766C444.74 58.2238 445.159 60.5472 445.159 63.334C445.159 68.5203 443.344 72.5449 439.713 75.3952C436.082 78.2518 430.889 79.6737 424.147 79.6737H424.135Z" fill="black"/>
</svg>
