<?xml version="1.0" encoding="UTF-8"?>
<svg version="1.1" xmlns="http://www.w3.org/2000/svg" width="225" height="225">
<path d="M0 0 C74.25 0 148.5 0 225 0 C225 74.25 225 148.5 225 225 C150.75 225 76.5 225 0 225 C0 150.75 0 76.5 0 0 Z " fill="#E67202" transform="translate(0,0)"/>
<path d="M0 0 C74.25 0 148.5 0 225 0 C225 74.25 225 148.5 225 225 C150.75 225 76.5 225 0 225 C0 150.75 0 76.5 0 0 Z M38.6875 51.8125 C23.05296836 71.43180675 15.56616065 94.97069899 17 120 C17.6024339 125.08604522 18.54902475 130.10107444 19.60302734 135.11083984 C19.93940981 136.71165629 20.24816011 138.31824061 20.55078125 139.92578125 C23.45384384 152.94019109 31.26031292 165.1502317 40 175 C40.86625 176.09634766 40.86625 176.09634766 41.75 177.21484375 C53.81709334 192.01263709 72.47774613 202.06940543 91 206 C91.97175171 206.24834595 91.97175171 206.24834595 92.96313477 206.50170898 C98.67691992 207.90965276 104.06199299 208.35120558 109.9375 208.3125 C110.84773926 208.30686035 111.75797852 208.3012207 112.69580078 208.29541016 C138.7194542 207.83837851 162.35022583 198.30230209 181 180 C201.62843602 158.06636973 208.72181502 131.55750004 208.4609375 102.26953125 C208.45854342 100.45497266 208.45764978 98.64041154 208.4581604 96.82585144 C208.45506794 93.06529717 208.43876747 89.3051338 208.41162109 85.54467773 C208.37737484 80.7424103 208.37000233 75.94056372 208.37151146 71.13818836 C208.37096657 67.4088495 208.35998465 63.67960123 208.34550858 59.95029259 C208.33918452 58.17898935 208.33521208 56.40767598 208.33372116 54.63636208 C208.32935624 52.16600786 208.31179547 49.69608951 208.29052734 47.22583008 C208.2918869 46.14958122 208.2918869 46.14958122 208.29327393 45.05158997 C208.18343493 36.27069472 206.17688529 29.36063703 200 23 C193.65936246 18.1839652 186.80638342 16.69971071 179.0012207 16.70947266 C178.22131775 16.70275543 177.44141479 16.69603821 176.63787842 16.68911743 C174.06711373 16.67017471 171.49661136 16.66621318 168.92578125 16.6640625 C167.11899208 16.6576251 165.31220393 16.65089605 163.50541687 16.64389038 C159.71346632 16.63192191 155.92160677 16.62820842 152.12963867 16.62939453 C147.32457511 16.62959611 142.52011378 16.60246045 137.71519184 16.56785011 C133.97681636 16.54533694 130.2385793 16.54156458 126.50014305 16.54261398 C124.73232159 16.5402881 122.96449447 16.53163969 121.1967411 16.51594925 C89.12517066 16.25825973 60.08082533 27.24615852 38.6875 51.8125 Z " fill="#FEFEFE" transform="translate(0,0)"/>
<path d="M0 0 C28.71 0 57.42 0 87 0 C80.4041453 7.69516381 73.56384258 15.01259538 65.875 21.625 C64.94107422 22.45644531 64.94107422 22.45644531 63.98828125 23.3046875 C62 25 62 25 59.54296875 26.7578125 C55.10721597 30.3203856 52.88228382 33.11183187 52.2109375 38.80078125 C51.87729952 43.54171933 51.8792121 48.25061987 52 53 C46.39 53 40.78 53 35 53 C35.06703125 51.76765625 35.1340625 50.5353125 35.203125 49.265625 C35.50365425 38.07089165 35.50365425 38.07089165 30.04443359 28.72802734 C27.45326714 26.3447211 24.78412726 24.15883394 22 22 C20.70084649 20.88365421 19.40800986 19.75986275 18.125 18.625 C17.51914063 18.109375 16.91328125 17.59375 16.2890625 17.0625 C12.91808312 14.02516704 9.71280936 10.82818777 6.5 7.625 C5.86336426 6.99287598 5.22672852 6.36075195 4.57080078 5.70947266 C3.98024902 5.1169873 3.38969727 4.52450195 2.78125 3.9140625 C2.24564453 3.3773291 1.71003906 2.8405957 1.15820312 2.28759766 C0 1 0 1 0 0 Z " fill="#FEFEFD" transform="translate(72,107)"/>
<path d="M0 0 C4.9299259 2.81999877 8.18110201 7.48720401 10.6875 12.5 C11.38373771 19.91892638 11.30943866 26.40991612 6.6875 32.5 C2.65015966 36.97705067 -1.24666234 39.57470273 -7.3125 40.5 C-14.03108549 40.77535186 -18.46581265 39.46402752 -23.62109375 35.12109375 C-28.77567462 30.18079107 -30.47338326 26.46644728 -30.75 19.375 C-30.69677374 12.55443516 -28.99975072 8.42108182 -24.3125 3.5 C-17.59320254 -2.28471892 -8.16870348 -3.57972141 0 0 Z " fill="#FEFDFC" transform="translate(125.3125,60.5)"/>
</svg>
