<?xml version="1.0" encoding="UTF-8"?>
<svg version="1.1" xmlns="http://www.w3.org/2000/svg" width="48" height="48">
<path d="M0 0 C2.9375 1 2.9375 1 4.4375 3.3125 C4.9375 6 4.9375 6 4.1875 8.25 C2.9375 10 2.9375 10 0.9375 11 C1.9584375 12.051875 1.9584375 12.051875 3 13.125 C4.9375 16 4.9375 16 4.875 19.125 C3.87861748 22.18057306 3.51882693 23.1750865 0.9375 25 C-1.64663022 25.32632361 -3.92097049 25.46469974 -6.5 25.4375 C-8.47806641 25.46650391 -8.47806641 25.46650391 -10.49609375 25.49609375 C-14.0625 25 -14.0625 25 -16.5 23.16015625 C-18.0625 21 -18.0625 21 -18.625 18 C-18.0625 15 -18.0625 15 -16.125 12.6875 C-12.13293464 10.48779052 -8.56135443 10.19602852 -4.0625 10 C-4.7225 9.34 -5.3825 8.68 -6.0625 8 C-6.4258156 5.16613833 -6.4193671 3.59477849 -4.9375 1.125 C-3.0625 0 -3.0625 0 0 0 Z M-1.0625 4 C-1.0625 7 -1.0625 7 -1.0625 7 Z M-12.0625 15 C-12.7225 16.32 -13.3825 17.64 -14.0625 19 C-12.22512173 21.27216848 -12.22512173 21.27216848 -9.4609375 21.1953125 C-8.46320312 21.17210937 -7.46546875 21.14890625 -6.4375 21.125 C-5.43460938 21.10695313 -4.43171875 21.08890625 -3.3984375 21.0703125 C-2.24214844 21.03550781 -2.24214844 21.03550781 -1.0625 21 C-0.4025 19.68 0.2575 18.36 0.9375 17 C-0.89987827 14.72783152 -0.89987827 14.72783152 -3.6640625 14.8046875 C-4.66179688 14.82789063 -5.65953125 14.85109375 -6.6875 14.875 C-7.69039062 14.89304687 -8.69328125 14.91109375 -9.7265625 14.9296875 C-10.88285156 14.96449219 -10.88285156 14.96449219 -12.0625 15 Z " fill="#000000" transform="translate(28.0625,4)"/>
<path d="M0 0 C1.5778125 -0.01546875 1.5778125 -0.01546875 3.1875 -0.03125 C6 0.5 6 0.5 7.8828125 2.3046875 C9.57667261 5.63318184 8.9156357 7.96826231 8 11.5 C4.76085771 13.65942819 3.75140267 13.77232978 0 13.75 C-0.86625 13.75515625 -1.7325 13.7603125 -2.625 13.765625 C-5 13.5 -5 13.5 -8 11.5 C-9.53980782 5.56074125 -9.53980782 5.56074125 -7.8828125 2.3046875 C-5.27040388 -0.19932242 -3.56865525 -0.03498682 0 0 Z M-3.75 5 C-4.1625 5.495 -4.575 5.99 -5 6.5 C-4.01 7.985 -4.01 7.985 -3 9.5 C0 10 0 10 3 9.5 C3.66 8.51 4.32 7.52 5 6.5 C3.7511573 4.9166747 3.7511573 4.9166747 2 3.5 C-1.87797662 3.06613908 -1.87797662 3.06613908 -3.75 5 Z " fill="#000000" transform="translate(24,29.5)"/>
</svg>
