<?xml version="1.0" encoding="UTF-8"?>
<svg xmlns="http://www.w3.org/2000/svg" xmlns:xlink="http://www.w3.org/1999/xlink" width="370px" height="77px" viewBox="0 0 368 77" version="1.1">
<defs>
<radialGradient id="radial0" gradientUnits="userSpaceOnUse" cx="0" cy="0" fx="0" fy="0" r="1" gradientTransform="matrix(-88.112973,91.878346,-119.240431,-114.950067,72.321918,2.616043)">
<stop offset="0" style="stop-color:rgb(96.470588%,92.941176%,47.058824%);stop-opacity:1;"/>
<stop offset="0.31" style="stop-color:rgb(65.490196%,91.372549%,67.058824%);stop-opacity:1;"/>
<stop offset="1" style="stop-color:rgb(15.686275%,87.45098%,96.862745%);stop-opacity:1;"/>
</radialGradient>
</defs>
<g id="surface1">
<path style=" stroke:none;fill-rule:nonzero;fill:url(#radial0);" d="M 38.253906 0 C 59.382812 0 76.507812 17.171875 76.507812 38.355469 L 76.507812 38.644531 C 76.507812 59.828125 59.382812 77 38.253906 77 C 17.125 77 0 59.828125 0 38.644531 L 0 38.355469 C 0 17.171875 17.125 0 38.253906 0 Z M 38.253906 0 "/>
<path style=" stroke:none;fill-rule:evenodd;fill:rgb(0%,0%,0%);fill-opacity:1;" d="M 39.253906 21.5 C 39.296875 17.027344 42.925781 13.414062 47.398438 13.414062 C 51.898438 13.414062 55.546875 17.074219 55.546875 21.585938 C 55.546875 26.097656 51.898438 29.757812 47.398438 29.757812 C 46.746094 29.757812 46.117188 29.671875 45.507812 29.527344 C 45.503906 29.523438 45.496094 29.523438 45.492188 29.523438 C 45.492188 29.523438 45.46875 29.515625 45.4375 29.507812 L 45.433594 29.507812 C 45.414062 29.503906 45.332031 29.496094 45.199219 29.488281 L 45.230469 29.492188 L 45.265625 29.492188 C 45.128906 29.484375 44.910156 29.472656 44.644531 29.472656 C 44.703125 29.472656 44.765625 29.472656 44.824219 29.476562 C 44.734375 29.472656 44.636719 29.472656 44.53125 29.472656 L 44.421875 29.472656 C 43.804688 29.488281 42.992188 29.558594 42.242188 29.796875 L 36.804688 30.628906 L 36.800781 30.628906 L 36.800781 30.632812 L 38.179688 30.417969 C 36.6875 34.160156 35.734375 37.023438 35.53125 38.09375 C 35.398438 38.792969 35.398438 39.402344 35.398438 39.402344 C 35.398438 39.605469 35.40625 39.984375 35.578125 41.050781 C 35.648438 41.488281 35.753906 42.082031 35.90625 42.78125 L 37.363281 48.09375 C 37.054688 47.96875 36.746094 47.847656 36.433594 47.742188 C 35.011719 47.261719 33.519531 46.90625 32.011719 47.050781 C 31.847656 47.066406 30.019531 47.257812 29.75 47.3125 C 29.746094 47.3125 29.742188 47.3125 29.742188 47.316406 C 29.730469 47.320312 29.722656 47.324219 29.714844 47.324219 C 29.011719 47.523438 28.273438 47.636719 27.507812 47.636719 C 23.007812 47.636719 19.359375 43.976562 19.359375 39.464844 C 19.359375 34.953125 23.007812 31.292969 27.507812 31.296875 C 28.128906 31.296875 28.730469 31.371094 29.316406 31.503906 L 29.320312 31.5 C 29.335938 31.503906 29.351562 31.503906 29.371094 31.503906 C 30.273438 31.585938 31.136719 31.53125 31.957031 31.371094 L 35.445312 30.835938 L 31.960938 31.367188 C 36.007812 30.558594 38.925781 26.960938 39.316406 22.640625 L 39.324219 22.640625 C 39.277344 22.292969 39.246094 21.945312 39.246094 21.585938 C 39.246094 21.570312 39.25 21.558594 39.25 21.542969 C 39.25 21.53125 39.253906 21.515625 39.253906 21.5 Z M 44.53125 29.472656 C 44.570312 29.472656 44.609375 29.472656 44.644531 29.472656 C 44.609375 29.472656 44.570312 29.472656 44.53125 29.472656 Z M 45.273438 29.492188 C 45.328125 29.496094 45.382812 29.503906 45.4375 29.507812 C 45.4375 29.507812 45.378906 29.5 45.273438 29.492188 Z M 29.324219 31.5 C 29.324219 31.496094 29.347656 31.496094 29.375 31.503906 C 29.355469 31.5 29.339844 31.5 29.324219 31.5 Z M 39.25 55.078125 C 39.257812 55.160156 39.269531 55.242188 39.277344 55.328125 C 39.269531 55.25 39.257812 55.164062 39.25 55.078125 Z M 39.320312 55.984375 C 39.320312 55.984375 39.320312 55.726562 39.277344 55.328125 C 39.300781 55.542969 39.316406 55.761719 39.320312 55.984375 Z M 39.238281 55.007812 L 39.238281 54.996094 L 39.234375 54.96875 C 39.152344 54.355469 38.984375 53.554688 38.664062 52.835938 L 37.207031 47.519531 L 35.90625 42.78125 C 37.179688 46.71875 41.082031 49.207031 45.410156 49.089844 L 45.410156 49.097656 C 45.746094 49.011719 46.089844 48.941406 46.445312 48.902344 C 46.464844 48.898438 46.480469 48.898438 46.496094 48.898438 C 46.507812 48.898438 46.519531 48.894531 46.53125 48.894531 C 50.96875 48.417969 54.96875 51.609375 55.488281 56.0625 L 55.492188 56.070312 C 56.015625 60.550781 52.820312 64.609375 48.347656 65.132812 C 43.878906 65.65625 39.832031 62.449219 39.308594 57.96875 C 39.230469 57.320312 39.242188 56.679688 39.316406 56.058594 L 39.316406 56.042969 C 39.316406 56.042969 39.320312 56.019531 39.324219 55.988281 C 39.324219 55.984375 39.316406 55.617188 39.25 55.082031 L 39.246094 55.046875 L 39.246094 55.039062 Z M 39.238281 55.007812 "/>
<path style=" stroke:none;fill-rule:nonzero;fill:rgb(0%,0%,0%);fill-opacity:1;" d="M 92.449219 59.753906 L 92.449219 17.476562 L 101.167969 17.476562 L 101.167969 37.195312 C 102.203125 35.949219 103.242188 34.699219 104.28125 33.449219 C 105.316406 32.203125 106.363281 30.945312 107.421875 29.675781 L 117.835938 17.476562 L 128.28125 17.476562 L 112.488281 35.75 L 128.703125 59.753906 L 118.65625 59.753906 L 106.742188 41.621094 L 101.167969 48.121094 L 101.167969 59.753906 Z M 141.796875 60.4375 C 138.777344 60.4375 136.125 59.785156 133.84375 58.476562 C 131.578125 57.171875 129.804688 55.355469 128.523438 53.03125 C 127.257812 50.683594 126.625 47.941406 126.625 44.800781 C 126.625 41.660156 127.257812 38.917969 128.523438 36.570312 C 129.804688 34.226562 131.578125 32.402344 133.84375 31.09375 C 136.125 29.769531 138.777344 29.109375 141.796875 29.109375 C 144.832031 29.109375 147.484375 29.769531 149.75 31.09375 C 152.03125 32.402344 153.804688 34.226562 155.070312 36.570312 C 156.351562 38.917969 156.996094 41.660156 156.996094 44.800781 C 156.996094 47.921875 156.351562 50.65625 155.070312 53 C 153.804688 55.347656 152.03125 57.171875 149.75 58.476562 C 147.484375 59.785156 144.832031 60.4375 141.796875 60.4375 Z M 141.796875 53.65625 C 143.832031 53.65625 145.476562 52.878906 146.722656 51.328125 C 147.964844 49.757812 148.589844 47.582031 148.589844 44.800781 C 148.589844 42 147.964844 39.816406 146.722656 38.246094 C 145.476562 36.675781 143.832031 35.890625 141.796875 35.890625 C 139.777344 35.890625 138.144531 36.675781 136.898438 38.246094 C 135.65625 39.816406 135.03125 42 135.03125 44.800781 C 135.03125 47.582031 135.65625 49.757812 136.898438 51.328125 C 138.144531 52.878906 139.777344 53.65625 141.796875 53.65625 Z M 168.21875 43.097656 L 168.21875 59.753906 L 159.867188 59.753906 L 159.867188 29.789062 L 168.074219 29.789062 L 168.074219 34.5 C 169.09375 32.796875 170.367188 31.484375 171.898438 30.554688 C 173.425781 29.628906 175.265625 29.164062 177.414062 29.164062 C 180.585938 29.164062 183.125 30.195312 185.03125 32.257812 C 186.933594 34.300781 187.886719 37.214844 187.886719 41 L 187.886719 59.753906 L 179.566406 59.753906 L 179.566406 42.53125 C 179.566406 40.527344 179.085938 39.003906 178.125 37.960938 C 177.160156 36.902344 175.8125 36.375 174.074219 36.375 C 172.359375 36.375 170.953125 36.914062 169.859375 37.992188 C 168.765625 39.070312 168.21875 40.773438 168.21875 43.097656 Z M 200.441406 43.097656 L 200.441406 59.753906 L 192.09375 59.753906 L 192.09375 29.789062 L 200.300781 29.789062 L 200.300781 34.5 C 201.320312 32.796875 202.59375 31.484375 204.121094 30.554688 C 205.648438 29.628906 207.488281 29.164062 209.640625 29.164062 C 212.808594 29.164062 215.347656 30.195312 217.253906 32.257812 C 219.160156 34.300781 220.109375 37.214844 220.109375 41 L 220.109375 59.753906 L 211.789062 59.753906 L 211.789062 42.53125 C 211.789062 40.527344 211.308594 39.003906 210.347656 37.960938 C 209.386719 36.902344 208.035156 36.375 206.300781 36.375 C 204.582031 36.375 203.175781 36.914062 202.082031 37.992188 C 200.988281 39.070312 200.441406 40.773438 200.441406 43.097656 Z M 237.957031 60.4375 C 234.9375 60.4375 232.304688 59.765625 230.0625 58.421875 C 227.835938 57.078125 226.097656 55.234375 224.855469 52.886719 C 223.628906 50.523438 223.015625 47.828125 223.015625 44.800781 C 223.015625 41.753906 223.636719 39.050781 224.882812 36.6875 C 226.144531 34.320312 227.882812 32.46875 230.089844 31.125 C 232.296875 29.78125 234.824219 29.109375 237.675781 29.109375 C 240.617188 29.109375 243.183594 29.769531 245.371094 31.09375 C 247.582031 32.402344 249.296875 34.226562 250.523438 36.570312 C 251.769531 38.898438 252.390625 41.585938 252.390625 44.632812 L 252.390625 46.871094 L 231.136719 46.871094 C 231.210938 49.085938 231.863281 50.855469 233.089844 52.179688 C 234.316406 53.503906 236.023438 54.164062 238.210938 54.164062 C 239.835938 54.164062 241.183594 53.816406 242.261719 53.117188 C 243.355469 52.414062 244.089844 51.488281 244.46875 50.335938 L 252.082031 50.335938 C 251.722656 52.320312 250.882812 54.070312 249.5625 55.582031 C 248.242188 57.097656 246.582031 58.289062 244.582031 59.160156 C 242.582031 60.011719 240.371094 60.4375 237.957031 60.4375 Z M 231.195312 41.539062 L 244.523438 41.539062 C 244.316406 39.664062 243.617188 38.191406 242.429688 37.109375 C 241.261719 36.015625 239.730469 35.464844 237.84375 35.464844 C 235.976562 35.464844 234.457031 36.015625 233.289062 37.109375 C 232.117188 38.191406 231.421875 39.664062 231.195312 41.539062 Z M 268.824219 60.4375 C 265.824219 60.4375 263.199219 59.785156 260.957031 58.476562 C 258.710938 57.152344 256.957031 55.320312 255.691406 52.972656 C 254.445312 50.609375 253.824219 47.882812 253.824219 44.800781 C 253.824219 41.699219 254.445312 38.972656 255.691406 36.628906 C 256.957031 34.265625 258.710938 32.417969 260.957031 31.09375 C 263.199219 29.769531 265.824219 29.109375 268.824219 29.109375 C 271.445312 29.109375 273.777344 29.621094 275.8125 30.640625 C 277.871094 31.644531 279.511719 33.042969 280.738281 34.839844 C 281.984375 36.621094 282.691406 38.671875 282.859375 41 L 274.796875 41 C 274.570312 39.464844 273.945312 38.226562 272.925781 37.28125 C 271.925781 36.335938 270.597656 35.863281 268.9375 35.863281 C 266.839844 35.863281 265.199219 36.667969 264.011719 38.273438 C 262.824219 39.882812 262.230469 42.058594 262.230469 44.800781 C 262.230469 47.523438 262.824219 49.691406 264.011719 51.300781 C 265.199219 52.886719 266.839844 53.683594 268.9375 53.683594 C 270.613281 53.683594 271.9375 53.210938 272.898438 52.265625 C 273.859375 51.316406 274.472656 50.058594 274.738281 48.488281 L 282.859375 48.488281 C 282.746094 50.796875 282.078125 52.851562 280.851562 54.648438 C 279.625 56.445312 277.972656 57.863281 275.898438 58.902344 C 273.839844 59.925781 271.484375 60.4375 268.824219 60.4375 Z M 302.773438 29.789062 L 302.773438 36.34375 L 296.660156 36.34375 L 296.660156 50.503906 C 296.660156 51.527344 296.859375 52.234375 297.253906 52.632812 C 297.667969 53.011719 298.441406 53.199219 299.574219 53.199219 L 302.773438 53.199219 L 302.773438 59.753906 L 297.90625 59.753906 C 294.621094 59.753906 292.199219 59.113281 290.632812 57.824219 C 289.085938 56.539062 288.3125 54.535156 288.3125 51.808594 L 288.3125 36.34375 L 283.160156 36.34375 L 283.160156 29.789062 L 288.3125 29.789062 L 288.3125 21.617188 L 296.660156 21.617188 L 296.660156 29.789062 Z M 305.25 59.753906 L 305.25 29.789062 L 313.601562 29.789062 L 313.601562 59.753906 Z M 309.410156 26.015625 C 308.035156 26.015625 306.894531 25.601562 305.988281 24.769531 C 305.082031 23.917969 304.628906 22.847656 304.628906 21.5625 C 304.628906 20.273438 305.082031 19.214844 305.988281 18.382812 C 306.894531 17.53125 308.035156 17.105469 309.410156 17.105469 C 310.769531 17.105469 311.902344 17.53125 312.808594 18.382812 C 313.714844 19.214844 314.167969 20.273438 314.167969 21.5625 C 314.167969 22.847656 313.714844 23.917969 312.808594 24.769531 C 311.902344 25.601562 310.769531 26.015625 309.410156 26.015625 Z M 335.183594 29.789062 L 335.183594 36.34375 L 329.070312 36.34375 L 329.070312 59.753906 L 320.75 59.753906 L 320.75 36.34375 L 315.34375 36.34375 L 315.34375 29.789062 L 320.75 29.789062 L 320.75 25.902344 C 320.75 20.285156 323.984375 17.476562 330.457031 17.476562 L 335.183594 17.476562 L 335.183594 24.03125 L 332.351562 24.03125 C 331.144531 24.03125 330.296875 24.285156 329.804688 24.796875 C 329.3125 25.289062 329.070312 26.128906 329.070312 27.320312 L 329.070312 29.789062 Z M 338.566406 71.617188 L 338.566406 65.003906 L 342.359375 65.003906 C 343.359375 65.003906 344.09375 64.757812 344.566406 64.265625 C 345.058594 63.792969 345.5 62.980469 345.898438 61.828125 L 346.71875 59.640625 L 335.226562 29.789062 L 343.972656 29.789062 L 348.980469 44.601562 C 349.320312 45.679688 349.652344 46.757812 349.972656 47.835938 C 350.3125 48.914062 350.640625 49.992188 350.964844 51.070312 C 351.285156 49.992188 351.613281 48.914062 351.953125 47.835938 C 352.292969 46.738281 352.632812 45.660156 352.972656 44.601562 L 358.011719 29.789062 L 366.671875 29.789062 L 353.511719 64.378906 C 352.566406 66.878906 351.339844 68.703125 349.832031 69.855469 C 348.320312 71.03125 346.40625 71.617188 344.085938 71.617188 Z M 338.566406 71.617188 "/>
</g>
</svg>
