<?xml version="1.0" encoding="UTF-8"?>
<svg version="1.1" xmlns="http://www.w3.org/2000/svg" width="1432" height="311">
<path d="M0 0 C0.717323 -0.0038269 1.434646 -0.00765381 2.17370605 -0.01159668 C3.68661914 -0.01431227 5.19957945 -0.00697555 6.71240234 0.00976562 C9.02417976 0.03118449 11.33285013 0.00995649 13.64453125 -0.015625 C15.11719434 -0.01298166 16.5898555 -0.00785653 18.0625 0 C18.75114136 -0.00809692 19.43978271 -0.01619385 20.14929199 -0.02453613 C23.31148702 0.03704335 25.17208783 0.25626043 27.71255875 2.20135117 C29.99241704 5.12204437 30.03705074 6.64965706 30.05023193 10.32720947 C30.06414474 11.5106897 30.07805756 12.69416992 30.09239197 13.91351318 C30.0873616 15.20823547 30.08233124 16.50295776 30.07714844 17.83691406 C30.08588435 19.21680873 30.0963702 20.59669327 30.10847473 21.9765625 C30.13635383 25.72008839 30.13973902 29.46328406 30.13875484 33.20689869 C30.14188234 37.12008385 30.16749709 41.03311992 30.19073486 44.94622803 C30.23131106 52.35511319 30.25163933 59.7639103 30.26470876 67.17288947 C30.28057336 75.6082091 30.31898666 84.04337878 30.35930204 92.47861147 C30.4417231 109.82944625 30.49580137 127.18025699 30.53125 144.53125 C31.07027451 144.05000168 31.60929901 143.56875336 32.16465759 143.07292175 C32.87723221 142.44195084 33.58980682 141.81097992 34.32397461 141.16088867 C35.02799911 140.53526535 35.73202362 139.90964203 36.4573822 139.26506042 C50.51421706 127.5131605 71.49573905 124.46449021 89.12890625 125.8046875 C113.71377255 128.37217107 134.59134251 137.67038968 151.14453125 156.484375 C163.73506738 172.55739985 169.66331553 192.29752777 170.53125 212.53125 C170.5725 213.47226563 170.61375 214.41328125 170.65625 215.3828125 C171.17397926 239.39250697 164.31579034 262.16444615 148.53125 280.53125 C148.01304687 281.19253906 147.49484375 281.85382813 146.9609375 282.53515625 C133.8472917 298.72132293 112.19043466 308.25352339 91.94140625 311.21484375 C64.91582763 313.72237166 38.75769073 308.03155025 17.53125 290.53125 C16.54125 289.809375 15.55125 289.0875 14.53125 288.34375 C-1.57728478 274.54914839 -9.58766011 250.94944264 -11.46875 230.53125 C-11.8479314 223.15363784 -11.7632692 215.7578071 -11.75927734 208.37280273 C-11.76527045 206.15080034 -11.77207778 203.92880001 -11.77963257 201.70680237 C-11.79720574 195.70748368 -11.80198386 189.70822213 -11.80326414 183.70888019 C-11.80468957 179.95940294 -11.80896625 176.20994005 -11.81425858 172.46046638 C-11.83176951 160.05124796 -11.84110246 147.6420572 -11.83959763 135.23282789 C-11.83951772 134.56616803 -11.8394378 133.89950816 -11.83935547 133.21264648 C-11.83927371 132.54516831 -11.83919195 131.87769013 -11.83910771 131.18998534 C-11.8382926 120.34262332 -11.85749775 109.49539938 -11.8856322 98.64807736 C-11.91433802 87.49216111 -11.92780756 76.33629555 -11.92644465 65.18033749 C-11.92593417 58.92386198 -11.93166682 52.66754348 -11.95280075 46.41110039 C-11.97210225 40.53816534 -11.97236322 34.66553865 -11.95776749 28.792593 C-11.95566924 26.63504335 -11.9604403 24.47747476 -11.9724884 22.31995773 C-11.98784102 19.38114574 -11.97869952 16.4434109 -11.96322632 13.50462341 C-11.97351344 12.64578802 -11.98380057 11.78695263 -11.99439943 10.90209192 C-11.94996374 7.09897386 -11.91694106 5.15488555 -9.65159035 2.00276279 C-6.53787399 -0.09627916 -3.62991428 -0.04267989 0 0 Z M41.21875 179.78125 C29.40167817 194.07609495 28.11369791 211.67271274 29.53125 229.53125 C31.26843159 242.98686034 36.64999235 255.06603119 47.53125 263.53125 C62.62041818 272.57269565 78.5455124 274.58054755 95.53125 270.53125 C107.91859168 266.79463743 117.92159693 258.68714002 124.09375 247.21875 C131.73226263 231.35233334 131.03825899 212.16990723 126.53125 195.53125 C121.15971339 181.36992622 112.76571074 173.59214126 99.0859375 167.4296875 C80.00829479 160.86599692 55.20900104 164.9818613 41.21875 179.78125 Z " fill="#C224AE" transform="translate(820.46875,-0.53125)"/>
<path d="M0 0 C1.22551323 0.00636726 1.22551323 0.00636726 2.4757843 0.01286316 C5.08445232 0.02965184 7.69234687 0.06730356 10.30078125 0.10546875 C12.0696503 0.12051538 13.83853146 0.13420383 15.60742188 0.14648438 C19.94300621 0.17955589 24.27801261 0.23133885 28.61328125 0.29296875 C28.70476486 29.6523435 28.77543978 59.01170806 28.81754257 88.37119647 C28.82254469 91.84666702 28.82772204 95.32213729 28.83300781 98.79760742 C28.83405705 99.48943677 28.8351063 100.18126611 28.83618733 100.89405998 C28.85353652 112.05865943 28.88504351 123.2231755 28.92189243 134.38772569 C28.95945539 145.86535274 28.98125043 157.34292147 28.98963523 168.82060879 C28.99482812 175.25830475 29.00694454 181.69581234 29.03620148 188.13344765 C29.06357498 194.20649664 29.0716823 200.27928164 29.06571198 206.35238647 C29.06680247 208.56813688 29.07462435 210.78389713 29.09010315 212.99959373 C29.27559573 240.94880992 23.82394664 265.88754178 4.07421875 286.91796875 C-14.97261358 305.2996736 -40.37464049 311.92857343 -66.3046875 311.546875 C-90.84957476 310.36448997 -113.33510923 300.38913275 -130.3671875 282.58984375 C-150.36845623 259.8417857 -153.81764212 232.4590241 -152.38671875 203.29296875 C-150.27170148 181.3396709 -139.71089215 159.41592165 -122.69921875 145.23046875 C-113.04853677 137.80686723 -103.02910973 132.82057445 -91.38671875 129.29296875 C-89.87658203 128.81150391 -89.87658203 128.81150391 -88.3359375 128.3203125 C-66.83321612 122.56304588 -42.50179886 124.95905738 -23.18765259 136.04718018 C-20.84505852 137.66765998 -18.78841477 139.52203558 -16.67333984 141.42871094 C-15.86883392 142.15161316 -15.064328 142.87451538 -14.23544312 143.61932373 C-13.62536407 144.17162659 -13.01528503 144.72392944 -12.38671875 145.29296875 C-12.38313622 144.19937184 -12.38313622 144.19937184 -12.37948132 143.08368206 C-12.32038745 125.35732586 -12.24487361 107.63110957 -12.15100384 89.90490246 C-12.10600683 81.3326916 -12.06660127 72.76052265 -12.0402832 64.18823242 C-12.01733464 56.71804725 -11.98397206 49.24799427 -11.93801719 41.77791387 C-11.91404234 37.82124916 -11.8953416 33.86471571 -11.88910484 29.90797997 C-11.88307311 26.18559882 -11.86314334 22.46355371 -11.83244324 18.74129677 C-11.81942322 16.72014901 -11.82123816 14.69892287 -11.82344055 12.67773438 C-11.8109024 11.47880051 -11.79836426 10.27986664 -11.78544617 9.04460144 C-11.7808372 8.00020999 -11.77622824 6.95581854 -11.77147961 5.87977886 C-11.38671875 3.29296875 -11.38671875 3.29296875 -10.38596821 1.45180225 C-7.12253022 -0.43979825 -3.66429611 -0.07147159 0 0 Z M-98.82421875 178.04296875 C-108.21282721 188.10864032 -111.67297331 200.77506276 -112.38671875 214.29296875 C-112.46599609 215.42412109 -112.46599609 215.42412109 -112.546875 216.578125 C-113.09449188 230.83997322 -109.49275214 246.19079297 -100.29296875 257.26171875 C-90.11688618 268.10508542 -76.60449246 272.0888368 -62.07421875 272.60546875 C-48.34841009 272.2687606 -35.23228547 268.58264937 -25.0078125 259.09375 C-13.82766915 246.67436185 -10.69380144 230.4795389 -11.48876953 214.20361328 C-12.5423019 199.67435171 -16.81156254 187.39736951 -26.38671875 176.29296875 C-46.92415945 159.80130101 -79.43301713 159.8512229 -98.82421875 178.04296875 Z " fill="#F96F5C" transform="translate(1403.38671875,-0.29296875)"/>
<path d="M0 0 C2.13823604 1.59563855 4.05633646 3.16431777 6 5 C6 5.66 6 6.32 6 7 C6.99 7.33 7.98 7.66 9 8 C23.80311969 25.44283684 31.06255678 46.45517843 31.3125 69.25 C31.34150391 70.1471875 31.37050781 71.044375 31.40039062 71.96875 C31.40876953 72.82984375 31.41714844 73.6909375 31.42578125 74.578125 C31.44765503 75.74456543 31.44765503 75.74456543 31.4699707 76.93457031 C31 79 31 79 29.32338333 80.60654163 C26.45043368 82.32960458 24.69405567 82.370002 21.355896 82.36076355 C20.20607239 82.36488754 19.05624878 82.36901154 17.87158203 82.3732605 C15.98560303 82.35708176 15.98560303 82.35708176 14.06152344 82.34057617 C12.72104919 82.33972974 11.38057354 82.34020536 10.0401001 82.34190369 C6.40396734 82.34276445 2.76813145 82.32512581 -0.86793232 82.30418181 C-4.66891792 82.28542842 -8.46991033 82.28366563 -12.27093506 82.28010559 C-19.46739204 82.27078118 -26.66371231 82.24616208 -33.86010909 82.21605712 C-42.05349703 82.18252541 -50.2468915 82.1660302 -58.44033098 82.15097082 C-75.29363307 82.11961283 -92.14680208 82.06684468 -109 82 C-108.53857169 84.22466948 -108.07290112 86.4484593 -107.60546875 88.671875 C-107.34660889 89.9103418 -107.08774902 91.14880859 -106.82104492 92.42480469 C-104.265438 103.5530556 -99.08770432 113.08013453 -89.25 119.375 C-81.37841778 123.64987465 -72.9429739 126.42303394 -64 127 C-63.27941406 127.0515625 -62.55882812 127.103125 -61.81640625 127.15625 C-49.31580769 127.64888443 -35.91147589 124.87331842 -26.2734375 116.5 C-25.79132813 116.04625 -25.30921875 115.5925 -24.8125 115.125 C-21.8245449 112.86743392 -20.24515073 112.45708182 -16.55249023 112.55908203 C-11.38515335 113.45168944 -6.69828033 115.81889285 -1.97070312 118.01708984 C-0.11474394 118.87976717 1.74988136 119.72080029 3.6171875 120.55859375 C12.68471768 124.68471768 12.68471768 124.68471768 15 127 C14.87570318 132.75218074 13.04475015 135.94845629 9.125 139.9375 C8.63104736 140.45401123 8.13709473 140.97052246 7.62817383 141.50268555 C-9.38843181 158.84336557 -32.67790924 166.8296731 -56.63208008 167.24145508 C-83.42358549 167.34075643 -107.42826747 159.77156256 -127.14453125 140.953125 C-146.78899082 120.34000372 -150.67040597 93.82962066 -150.31640625 66.47265625 C-149.9061496 52.85179204 -147.06114201 40.24707224 -141 28 C-140.58234375 27.10410156 -140.1646875 26.20820313 -139.734375 25.28515625 C-130.42308736 6.6358244 -113.53193947 -6.96812409 -93.91943359 -13.71582031 C-62.26418837 -23.4662649 -26.88224031 -19.75437356 0 0 Z M-98.8125 36.875 C-102.25765116 40.97713347 -106 46.45594222 -106 52 C-75.31 52 -44.62 52 -13 52 C-14.86566065 42.67169676 -20.51633271 34.83175411 -28 29 C-50.78948367 15.17888457 -80.32674127 17.29955444 -98.8125 36.875 Z " fill="#DE3580" transform="translate(1180,144)"/>
<path d="M0 0 C1.15822266 1.13888672 1.15822266 1.13888672 2.33984375 2.30078125 C3.03980469 2.98785156 3.73976563 3.67492187 4.4609375 4.3828125 C21.23451383 22.0065116 26.48082025 46.40435246 26.8359375 70.0078125 C26.24142879 73.95403958 25.43349871 74.87250673 22.33984375 77.30078125 C19.70807266 77.79297256 19.70807266 77.79297256 16.65777588 77.78179932 C14.92041924 77.7900473 14.92041924 77.7900473 13.14796448 77.79846191 C11.24795937 77.77689026 11.24795937 77.77689026 9.30957031 77.75488281 C7.95924412 77.75375425 6.60891547 77.75438837 5.2585907 77.75665283 C1.59550605 77.75780059 -2.06705476 77.73428201 -5.73001766 77.706357 C-9.55901878 77.68135324 -13.38803189 77.67900217 -17.21710205 77.67425537 C-24.46673318 77.66182253 -31.71612305 77.62899691 -38.96564794 77.58885741 C-47.21947942 77.54414917 -55.47332243 77.52215507 -63.72724485 77.50207567 C-80.70502154 77.46026442 -97.68256339 77.38990655 -114.66015625 77.30078125 C-113.89024368 80.17494557 -113.11321178 83.04686582 -112.33203125 85.91796875 C-112.11659668 86.72516357 -111.90116211 87.5323584 -111.67919922 88.36401367 C-108.35501659 100.51767023 -103.00033307 108.81231437 -92.38671875 115.796875 C-78.86010815 123.3690806 -62.43653023 123.89655286 -47.66015625 120.30078125 C-40.34023012 117.94958791 -34.56979903 114.97684317 -28.98828125 109.65625 C-25.45421591 107.59866498 -22.56858489 107.56051388 -18.66015625 108.30078125 C-14.54211185 109.72795621 -10.586873 111.43672086 -6.63085938 113.26293945 C-4.77596326 114.11751659 -2.9109142 114.94587988 -1.04296875 115.77148438 C8.06741194 119.89213354 8.06741194 119.89213354 10.33984375 123.30078125 C9.92965199 130.79610341 3.08102779 136.7677884 -2.12890625 141.58203125 C-4.57687805 143.59618526 -7.07024977 145.47332388 -9.66015625 147.30078125 C-10.40523437 147.83316406 -11.1503125 148.36554688 -11.91796875 148.9140625 C-33.71567954 163.21188297 -62.61973625 165.11303097 -87.5703125 160.2109375 C-108.77816514 155.66954702 -128.27332017 143.96846295 -140.28515625 125.67578125 C-150.10324909 110.06897423 -155.03253139 92.6929185 -155.66015625 74.30078125 C-155.70011719 73.53507812 -155.74007813 72.769375 -155.78125 71.98046875 C-156.54511323 45.46992132 -148.44968524 20.06799005 -130.13671875 0.62109375 C-96.15063315 -32.16900056 -34.2409887 -32.18544751 0 0 Z M-102.66015625 31.30078125 C-107.16685144 36.63735381 -109.08305948 40.4285232 -111.66015625 47.30078125 C-80.64015625 47.30078125 -49.62015625 47.30078125 -17.66015625 47.30078125 C-21.34307187 36.2520344 -26.80401632 27.54097671 -37.265625 21.89453125 C-58.47051137 11.83317827 -86.36024819 12.79818291 -102.66015625 31.30078125 Z " fill="#8245C9" transform="translate(592.66015625,148.69921875)"/>
<path d="M0 0 C0.83113312 -0.0066568 1.66226624 -0.0133136 2.51858521 -0.02017212 C4.2788064 -0.03030672 6.03906607 -0.03498889 7.79931641 -0.03466797 C10.49055544 -0.0390345 13.18014583 -0.07532503 15.87109375 -0.11328125 C17.58072355 -0.11915062 19.29036116 -0.12311921 21 -0.125 C22.20642654 -0.14655655 22.20642654 -0.14655655 23.43722534 -0.16854858 C26.81967502 -0.14094615 29.12612731 -0.00600477 31.96655273 1.91088867 C34.07381591 4.97776708 35.53684951 8.16575496 36.92578125 11.59765625 C37.2287764 12.32334305 37.53177155 13.04902985 37.84394836 13.79670715 C38.84546859 16.20183534 39.83280662 18.61252526 40.8203125 21.0234375 C41.52773825 22.72954327 42.23608932 24.43526563 42.9453125 26.140625 C44.81155645 30.63435015 46.66623985 35.13275681 48.51849365 39.63226318 C50.30625951 43.96992348 52.10417659 48.30336217 53.90234375 52.63671875 C56.01671903 57.73229256 58.13030584 62.82817082 60.23681641 67.92700195 C63.87309401 76.72323092 67.54072284 85.50486371 71.26171875 94.265625 C71.63658417 95.14957947 72.01144958 96.03353394 72.39767456 96.9442749 C74.19472578 101.181201 75.99695137 105.41577658 77.80859375 109.64648438 C78.4494452 111.15485173 79.09008244 112.66331011 79.73046875 114.171875 C80.02643448 114.85732391 80.32240021 115.54277283 80.62733459 116.24899292 C81.84166766 119.12291067 82.6328125 121.18036231 82.6328125 124.3359375 C83.2928125 124.3359375 83.9528125 124.3359375 84.6328125 124.3359375 C84.72997559 123.67988525 84.82713867 123.02383301 84.92724609 122.34790039 C85.84826429 118.41620438 87.35579002 114.85874303 88.921875 111.14453125 C89.25687012 110.33977356 89.59186523 109.53501587 89.93701172 108.70587158 C91.0396392 106.05990672 92.1487124 103.41669501 93.2578125 100.7734375 C94.0321697 98.9185557 94.80608995 97.06349142 95.57958984 95.20825195 C97.16263333 91.41321478 98.74818138 87.61923976 100.3359375 83.82617188 C102.41972946 78.84740373 104.49680699 73.86587222 106.5703125 68.8828125 C108.40500584 64.47372178 110.23998346 60.06475848 112.07958984 55.65771484 C114.97796256 48.71388867 117.87048011 41.76779428 120.74386597 34.81358337 C122.12242126 31.47790305 123.50383304 28.14340903 124.88543701 24.80899048 C125.54347727 23.21857552 126.2001241 21.62758321 126.85528564 20.03598022 C127.76194555 17.83369412 128.67342925 15.63346175 129.5859375 13.43359375 C129.8508902 12.78635345 130.1158429 12.13911316 130.38882446 11.47225952 C134.3423551 1.9811662 134.3423551 1.9811662 137.6328125 0.3359375 C140.4535923 0.22469917 143.24894064 0.17182299 146.0703125 0.16796875 C147.3241272 0.16297615 147.3241272 0.16297615 148.60327148 0.15788269 C150.37190195 0.15281643 152.14054198 0.15047427 153.90917969 0.15063477 C156.62190385 0.1484463 159.33422273 0.13028223 162.046875 0.11132812 C163.76301944 0.1083946 165.47916581 0.10640953 167.1953125 0.10546875 C168.00991943 0.09828323 168.82452637 0.09109772 169.66381836 0.08369446 C175.40398604 0.10711104 175.40398604 0.10711104 177.6328125 2.3359375 C177.2770484 6.35268526 176.22736665 9.72130143 174.61328125 13.39453125 C174.17878662 14.39476318 173.74429199 15.39499512 173.29663086 16.42553711 C172.8094458 17.53034424 172.32226074 18.63515137 171.8203125 19.7734375 C171.01296407 21.63105004 170.20567875 23.48869043 169.39979553 25.34693909 C168.80396299 26.72049841 168.20736697 28.09372675 167.61009216 29.46665955 C163.80669608 38.21545213 160.07747972 46.99583653 156.34506226 55.77508545 C155.05664472 58.80558564 153.76726047 61.83567325 152.4777832 64.86572266 C147.02359978 77.68675809 141.59636161 90.51896711 136.18463135 103.35797119 C133.85254774 108.88779487 131.51536016 114.41546349 129.17791748 119.94302368 C127.15308145 124.73268011 125.1325047 129.52407336 123.11865234 134.31835938 C121.04888588 139.24510672 118.96960392 144.16773885 116.8838501 149.08773804 C116.09875396 150.94436361 115.31706996 152.80243618 114.53900146 154.66201782 C113.46598249 157.22520468 112.38097611 159.7829904 111.29296875 162.33984375 C110.82391365 163.47241608 110.82391365 163.47241608 110.34538269 164.62786865 C108.64338676 168.58941633 107.0851382 171.58156422 103.6328125 174.3359375 C100.07525162 175.52179113 96.81768446 175.51687021 93.11328125 175.5390625 C92.37709061 175.54476257 91.64089996 175.55046265 90.88240051 175.55633545 C89.32485384 175.56577506 87.7672873 175.57231531 86.2097168 175.57617188 C83.83932164 175.58585981 81.46980047 175.61688425 79.09960938 175.6484375 C77.58333846 175.65496991 76.06706137 175.66021945 74.55078125 175.6640625 C73.84745163 175.6764093 73.14412201 175.6887561 72.41947937 175.70147705 C67.74818058 175.68057089 64.52712195 174.93875233 60.6328125 172.3359375 C59.0090332 170.05957031 59.0090332 170.05957031 57.74609375 167.2890625 C57.24932129 166.21333984 56.75254883 165.13761719 56.24072266 164.02929688 C55.70213693 162.79931913 55.16630215 161.56813417 54.6328125 160.3359375 C54.34355896 159.67730713 54.05430542 159.01867676 53.75628662 158.34008789 C51.39182744 152.94399172 49.10347266 147.51680665 46.8203125 142.0859375 C46.07186122 140.31387326 45.32299165 138.54198563 44.57373047 136.77026367 C43.02300036 133.10255126 41.47404799 129.43409563 39.92626953 125.76513672 C37.76307215 120.64043133 35.58900808 115.52041031 33.41015625 110.40234375 C33.06747711 109.59735443 32.72479797 108.79236511 32.37173462 107.96298218 C31.68022135 106.33867334 30.98868289 104.71437524 30.29711914 103.09008789 C25.43500396 91.66748654 20.58781163 80.23865049 15.76171875 68.80078125 C15.35276871 67.83167313 14.94381866 66.862565 14.5224762 65.86408997 C12.48286603 61.02974976 10.44495751 56.19470063 8.40942383 51.35864258 C4.90353169 43.03548026 1.38350284 34.72050718 -2.234375 26.4453125 C-2.52424789 25.77989441 -2.81412079 25.11447632 -3.11277771 24.42889404 C-4.42020269 21.42774494 -5.73528589 18.43061841 -7.06762695 15.44042969 C-7.51066162 14.42625977 -7.95369629 13.41208984 -8.41015625 12.3671875 C-8.98286255 11.07651367 -8.98286255 11.07651367 -9.56713867 9.75976562 C-10.44584655 7.09763203 -10.66521475 5.12027104 -10.3671875 2.3359375 C-7.37026588 -0.66098412 -4.01972116 0.01106782 0 0 Z " fill="#6B4CBE" transform="translate(240.3671875,130.6640625)"/>
<path d="M0 0 C0.87994629 0.11754639 1.75989258 0.23509277 2.66650391 0.35620117 C8.17133432 1.1727945 13.0263629 2.42853664 18.125 4.6875 C21.50697498 11.45144997 18.21465487 21.23747286 16.6875 28.1875 C16.45740234 29.28320312 16.22730469 30.37890625 15.99023438 31.5078125 C14.27082922 39.54167078 14.27082922 39.54167078 13.125 40.6875 C10.85147745 40.59238637 8.58062711 40.43316879 6.3125 40.25 C-17.885721 37.89213999 -17.885721 37.89213999 -39.875 46.3125 C-46.58410543 52.8880909 -48.85618618 61.40176466 -49.01976013 70.52690125 C-49.03424015 72.46020524 -49.04349552 74.39355277 -49.04858398 76.3269043 C-49.055271 77.38610077 -49.06195801 78.44529724 -49.06884766 79.53659058 C-49.08286558 81.82989556 -49.09476991 84.12321423 -49.10479546 86.41654015 C-49.12123569 90.0430288 -49.14447172 93.66941508 -49.16969299 97.29585266 C-49.24040869 107.6041656 -49.30073984 117.9125185 -49.35180664 128.22094727 C-49.38353735 134.53025802 -49.42478827 140.83944769 -49.47200203 147.14866066 C-49.48804651 149.554867 -49.50035671 151.96110118 -49.50890923 154.36734581 C-49.52101775 157.72378281 -49.54514583 161.07993282 -49.57202148 164.4362793 C-49.57261063 165.4352977 -49.57319977 166.4343161 -49.57380676 167.46360779 C-49.58352509 168.37620361 -49.59324341 169.28879944 -49.60325623 170.22904968 C-49.60748816 171.02229487 -49.6117201 171.81554007 -49.61608028 172.63282299 C-49.875 174.6875 -49.875 174.6875 -51.875 177.6875 C-57.07279904 179.42009968 -62.62936896 178.9920225 -68.07128906 179.03759766 C-69.52034564 179.05416016 -70.9693204 179.08145506 -72.41796875 179.11962891 C-74.51605216 179.17456506 -76.61223063 179.19629062 -78.7109375 179.2109375 C-79.96438965 179.23075684 -81.2178418 179.25057617 -82.50927734 179.27099609 C-86.98446545 178.49515832 -88.16034095 177.32270346 -90.875 173.6875 C-91.60087009 170.20618181 -91.5275621 166.78961464 -91.47436523 163.24438477 C-91.47830795 162.19324997 -91.48225067 161.14211517 -91.48631287 160.05912781 C-91.4930278 156.58190316 -91.463831 153.10599072 -91.43359375 149.62890625 C-91.42934112 147.20336664 -91.42701479 144.77782295 -91.42652893 142.35227966 C-91.42035892 137.26209117 -91.39764886 132.17234187 -91.36206055 127.08227539 C-91.31700515 120.58974267 -91.3020457 114.09761026 -91.29832363 107.60493565 C-91.29386916 102.5902875 -91.27851651 97.57572167 -91.2594471 92.56110954 C-91.25062451 90.16956186 -91.24386598 87.77800557 -91.23928642 85.386446 C-91.17228585 60.76800445 -90.01728735 36.50642671 -72.3125 17.4375 C-52.79168017 -0.95939384 -25.48239906 -3.46881987 0 0 Z " fill="#9F34CE" transform="translate(749.875,127.3125)"/>
<path d="M0 0 C3.55594139 5.62254369 0.51583997 15.03117429 -0.609375 21.15234375 C-0.77501953 22.13203125 -0.94066406 23.11171875 -1.11132812 24.12109375 C-1.28212891 25.0646875 -1.45292969 26.00828125 -1.62890625 26.98046875 C-1.78077393 27.8302832 -1.9326416 28.68009766 -2.08911133 29.55566406 C-2.89501368 32.2277349 -3.89533786 33.86625425 -5.796875 35.90234375 C-8.4140625 36.07421875 -8.4140625 36.07421875 -11.671875 35.65234375 C-34.05979696 33.40573557 -34.05979696 33.40573557 -55.171875 39.71484375 C-61.77392102 45.21654877 -65.38647778 51.44171632 -66.796875 59.90234375 C-66.88563946 61.48622932 -66.92985426 63.07309149 -66.93490601 64.65945435 C-66.94035934 65.58754913 -66.94581268 66.51564392 -66.95143127 67.47186279 C-66.95299477 68.98070038 -66.95299477 68.98070038 -66.95458984 70.52001953 C-66.95967056 71.58882355 -66.96475128 72.65762756 -66.96998596 73.75881958 C-66.98067397 76.07615468 -66.98930028 78.3935 -66.99610519 80.71084976 C-67.00790074 84.37506758 -67.02735287 88.03916789 -67.04922485 91.70333862 C-67.11083772 102.12005739 -67.16498769 112.53676225 -67.19824219 122.95361328 C-67.21913514 129.32665053 -67.25438819 135.69947045 -67.29899979 142.07238388 C-67.31319546 144.50370611 -67.32189022 146.93506676 -67.32505417 149.36642838 C-67.32993865 152.75900449 -67.35303092 156.15099837 -67.38037109 159.54345703 C-67.37736496 160.55339722 -67.37435883 161.5633374 -67.3712616 162.60388184 C-67.38235458 163.52633698 -67.39344757 164.44879211 -67.40487671 165.39920044 C-67.40818686 166.20111879 -67.411497 167.00303715 -67.41490746 167.82925606 C-67.89224924 170.41997717 -68.76617234 171.27695252 -70.796875 172.90234375 C-75.17701256 175.09241253 -81.1027141 174.08819293 -85.97265625 174.08764648 C-88.15644957 174.08982834 -90.3397339 174.10797511 -92.5234375 174.12695312 C-93.91406077 174.12988811 -95.30468645 174.1318722 -96.6953125 174.1328125 C-97.96036621 174.13692139 -99.22541992 174.14103027 -100.52880859 174.14526367 C-103.59545032 173.91731593 -105.28819114 173.62361115 -107.796875 171.90234375 C-108.97301261 169.55006853 -108.92758925 168.14696126 -108.93731689 165.52427673 C-108.94302704 164.60370987 -108.94873718 163.68314301 -108.95462036 162.73468018 C-108.95573822 161.72129578 -108.95685608 160.70791138 -108.95800781 159.66381836 C-108.96297272 158.59843338 -108.96793762 157.5330484 -108.97305298 156.43537903 C-108.98771673 152.89180868 -108.99448792 149.34828328 -109 145.8046875 C-109.00575337 143.33720397 -109.01151108 140.86972045 -109.01727295 138.40223694 C-109.02779855 133.21273592 -109.03362923 128.02325044 -109.03710938 122.83374023 C-109.04256028 116.22370621 -109.06650824 109.61388172 -109.09508133 103.00391293 C-109.11383579 97.89652438 -109.11892035 92.78918466 -109.12044525 87.6817646 C-109.12344969 85.24802075 -109.13140236 82.8142773 -109.14463043 80.38056755 C-109.27039312 55.43673171 -107.51732253 31.51544543 -89.734375 12.21484375 C-69.48558002 -6.96822518 -24.64555732 -15.05522089 0 0 Z " fill="#5751AE" transform="translate(108.796875,132.09765625)"/>
<path d="M0 0 C1.15181007 -0.00074776 1.15181007 -0.00074776 2.32688904 -0.00151062 C3.94833975 0.00082792 5.56979423 0.01054356 7.19116211 0.02709961 C9.67790018 0.05072715 12.16356858 0.04765502 14.65039062 0.04101562 C16.22526683 0.04659131 17.80013851 0.0537005 19.375 0.0625 C20.12084854 0.06158859 20.86669708 0.06067719 21.63514709 0.05973816 C26.89005084 0.13223834 26.89005084 0.13223834 29.12109375 2.36328125 C29.37836266 5.25594997 29.37836266 5.25594997 29.38851929 9.03746033 C29.3930504 9.73125638 29.39758151 10.42505243 29.40224993 11.13987261 C29.41495975 13.4760463 29.41326938 15.81198882 29.41162109 18.14819336 C29.41760222 19.81847943 29.4244068 21.48876273 29.43197632 23.15904236 C29.44968518 27.70444964 29.45433373 32.24978169 29.45560789 36.79522014 C29.45750374 40.58517144 29.46485759 44.37510509 29.47195208 48.16504961 C29.48825196 57.10377585 29.49311955 66.04246178 29.49169922 74.98120117 C29.49049714 84.21302186 29.51160855 93.444609 29.54318655 102.67637056 C29.5693052 110.59317629 29.58006839 118.50990554 29.5787884 126.42675406 C29.57827749 131.15922436 29.58403134 135.89148719 29.6051445 140.62391472 C29.624453 145.07350731 29.6247024 149.52269296 29.61011124 153.97229958 C29.60801285 155.60779283 29.61278492 157.24331106 29.62483215 158.87876129 C29.64018648 161.10703132 29.63104384 163.33388082 29.61557007 165.56211853 C29.6166596 166.81039397 29.61774914 168.05866941 29.61887169 169.34477139 C29.12109375 172.36328125 29.12109375 172.36328125 27.29146767 174.26409245 C24.18198851 175.83889237 21.59838199 175.7522857 18.125 175.76171875 C17.11916115 175.76602402 17.11916115 175.76602402 16.09300232 175.77041626 C14.67844801 175.77245246 13.26386526 175.76695355 11.84936523 175.75439453 C9.69385185 175.73835757 7.54022034 175.7542429 5.38476562 175.7734375 C4.00650631 175.77145449 2.62824815 175.76760963 1.25 175.76171875 C0.0029126 175.75833496 -1.2441748 175.75495117 -2.52905273 175.75146484 C-6.26874488 175.31810645 -7.9697195 174.73363832 -10.87890625 172.36328125 C-11.50252533 169.36318207 -11.50252533 169.36318207 -11.50036621 165.60681152 C-11.50994944 164.57096113 -11.50994944 164.57096113 -11.51972628 163.51418447 C-11.5350176 161.19441797 -11.51449037 158.87634829 -11.49414062 156.55664062 C-11.49764062 154.89605644 -11.50329783 153.23547561 -11.51095581 151.5749054 C-11.5252311 147.06034108 -11.50811573 142.54638384 -11.48467064 138.03187752 C-11.46459952 133.31271691 -11.47043924 128.59358244 -11.47277832 123.87438965 C-11.47272471 115.94854692 -11.45294357 108.02294227 -11.42089844 100.09716797 C-11.38400384 90.92725754 -11.37522244 81.75765911 -11.38219595 72.58768415 C-11.38849609 63.77503199 -11.37775575 54.96248709 -11.35823059 46.14985657 C-11.35004502 42.39551773 -11.34734917 38.64123362 -11.34892273 34.8868866 C-11.34980017 30.46765508 -11.33562357 26.04872114 -11.3096962 21.6295681 C-11.30251965 20.00538259 -11.30045791 18.38116545 -11.30381393 16.75696754 C-11.30751464 14.54423666 -11.2928318 12.33238103 -11.27331543 10.11975098 C-11.26958672 8.8801487 -11.265858 7.64054642 -11.2620163 6.36338043 C-10.87890625 3.36328125 -10.87890625 3.36328125 -9.57436371 1.46427155 C-6.66122757 -0.42745072 -3.35987295 -0.04160066 0 0 Z " fill="#5D4DB4" transform="translate(160.87890625,130.63671875)"/>
<path d="M0 0 C7.10351597 3.59560685 11.34574296 7.82100619 14.25 15.3125 C16.30657916 22.40084285 15.49328627 28.24203848 12.578125 34.9140625 C9.06912822 41.25089785 4.17446853 45.16352701 -2.75 47.3125 C-9.53354599 48.93547923 -15.4445254 48.36162621 -21.75 45.3125 C-28.35040247 40.77281051 -32.51318686 36.14772098 -34.20703125 28.15625 C-35.5262088 19.69031933 -33.48999633 13.33471768 -28.6015625 6.36328125 C-21.40249142 -1.61037342 -9.84071097 -4.13643444 0 0 Z " fill="#6B4DBE" transform="translate(179.75,38.6875)"/>
<path d="M0 0 C0.66 1.32 1.32 2.64 2 4 C2.66 4 3.32 4 4 4 C4.06960465 17.40444603 4.12286454 30.80884883 4.15543652 44.21343899 C4.17107184 50.4381748 4.19227139 56.66278668 4.22631836 62.88745117 C4.2589875 68.89803849 4.27686906 74.90850683 4.28463173 80.9191761 C4.29016165 83.20882095 4.30096018 85.49845951 4.31719017 87.78805351 C4.3390645 91.00264275 4.3419627 94.21674443 4.34057617 97.43139648 C4.35675491 98.84157547 4.35675491 98.84157547 4.3732605 100.28024292 C4.34499095 106.36358039 3.27601647 111.35762872 1 117 C-1 115 -1 115 -1.24888897 113.04996014 C-1.2483442 112.24711999 -1.24779943 111.44427984 -1.24723816 110.61711121 C-1.25143265 109.69603073 -1.25562714 108.77495026 -1.25994873 107.82595825 C-1.25432922 106.81242279 -1.24870972 105.79888733 -1.24291992 104.75463867 C-1.24481827 103.68948532 -1.24671661 102.62433197 -1.24867249 101.52690125 C-1.25239011 97.99051655 -1.24165993 94.45433534 -1.23046875 90.91796875 C-1.22927713 88.46657841 -1.22882375 86.01518761 -1.2290802 83.563797 C-1.2275135 78.41807204 -1.21921115 73.27241648 -1.20581055 68.12670898 C-1.18884729 61.52901679 -1.18499538 54.93140113 -1.18575573 48.33368969 C-1.18548377 43.26796233 -1.17999798 38.20225171 -1.17275429 33.13652992 C-1.16957033 30.704045 -1.16760085 28.27155817 -1.16686058 25.83907127 C-1.16469264 22.43719632 -1.15593763 19.03540246 -1.14526367 15.63354492 C-1.14571686 14.62608215 -1.14617004 13.61861938 -1.14663696 12.58062744 C-1.14237198 11.65108749 -1.13810699 10.72154755 -1.13371277 9.76383972 C-1.131199 8.55788289 -1.131199 8.55788289 -1.12863445 7.32756329 C-0.98946438 4.80936424 -0.54891 2.45878142 0 0 Z " fill="#8B46BE" transform="translate(660,186)"/>
<path d="M0 0 C0.66 0 1.32 0 2 0 C2 35.64 2 71.28 2 108 C1.01 108.495 1.01 108.495 0 109 C-0.66 108.67 -1.32 108.34 -2 108 C-2.495 108.99 -2.495 108.99 -3 110 C-2.7619369 96.24829967 -2.51890955 82.49669696 -2.26950932 68.7451973 C-2.15386493 62.36011973 -2.03994356 55.97502104 -1.92993164 49.58984375 C-1.82374059 43.43008572 -1.71306048 37.27042334 -1.59924126 31.1108017 C-1.55656827 28.75845954 -1.51552461 26.40608726 -1.4761219 24.05368805 C-1.42074187 20.76388796 -1.35961774 17.47424177 -1.29711914 14.18457031 C-1.28201294 13.20777313 -1.26690674 12.23097595 -1.25134277 11.22457886 C-1.2331398 10.32717987 -1.21493683 9.42978088 -1.19618225 8.50518799 C-1.17544191 7.33819807 -1.17544191 7.33819807 -1.15428257 6.1476326 C-0.99955369 3.99378731 -0.58858383 2.07372883 0 0 Z " fill="#945CB6" transform="translate(698,194)"/>
<path d="M0 0 C0.68214569 0.00054382 1.36429138 0.00108765 2.06710815 0.00164795 C25.94848388 0.08903461 48.12181804 6.54907815 65.9375 23.375 C65.9375 24.035 65.9375 24.695 65.9375 25.375 C67.4225 25.87 67.4225 25.87 68.9375 26.375 C70.76811617 28.65534235 72.46070984 30.9169668 74.125 33.3125 C74.58841797 33.95896484 75.05183594 34.60542969 75.52929688 35.27148438 C78.9375 40.10520987 78.9375 40.10520987 78.9375 42.375 C74.13652538 40.77467513 72.31919412 36.68473221 69.9375 32.375 C69.9375 31.715 69.9375 31.055 69.9375 30.375 C68.2875 30.045 66.6375 29.715 64.9375 29.375 C64.4425 27.89 64.4425 27.89 63.9375 26.375 C62.4525 26.87 62.4525 26.87 60.9375 27.375 C60.9375 26.055 60.9375 24.735 60.9375 23.375 C59.20894074 21.22932087 59.20894074 21.22932087 56.9375 19.375 C56.31875 18.83875 55.7 18.3025 55.0625 17.75 C52.47425616 16.07525399 49.88310862 15.24529346 46.9375 14.375 C46.9375 13.715 46.9375 13.055 46.9375 12.375 C43.15562119 10.53808743 40.99181692 10.21662374 36.9375 11.375 C36.4425 9.395 36.4425 9.395 35.9375 7.375 C34.6690625 7.21064453 34.6690625 7.21064453 33.375 7.04296875 C31.6734375 6.80513672 31.6734375 6.80513672 29.9375 6.5625 C28.82375 6.41167969 27.71 6.26085937 26.5625 6.10546875 C22.9375 5.375 22.9375 5.375 19.3359375 3.8203125 C13.5940307 1.56377354 7.64261124 1.97916514 1.5625 2.0625 C0.39460938 2.05927734 -0.77328125 2.05605469 -1.9765625 2.05273438 C-8.22235394 2.09124542 -13.9231439 2.50386669 -19.96337891 4.14379883 C-22.58213738 4.43223384 -23.84874434 3.72687598 -26.0625 2.375 C-17.35596989 0.40648831 -8.90844745 -0.01200379 0 0 Z " fill="#EF687F" transform="translate(1120.0625,125.625)"/>
<path d="M0 0 C0.33 0 0.66 0 1 0 C1.79014248 5.55778146 2.14050792 10.91849318 2.11352539 16.52734375 C2.11367142 17.33805832 2.11381744 18.14877289 2.1139679 18.98405457 C2.11327718 21.63523129 2.10552458 24.28633571 2.09765625 26.9375 C2.09578908 28.78694622 2.09436659 30.63639295 2.09336853 32.48583984 C2.08956692 37.33222847 2.07975694 42.17858669 2.06866455 47.02496338 C2.05839958 51.97887765 2.05386005 56.93279688 2.04882812 61.88671875 C2.03813239 71.59115912 2.02108452 81.29557702 2 91 C1.67 91 1.34 91 1 91 C0.67 98.92 0.34 106.84 0 115 C-0.33 115 -0.66 115 -1 115 C-1.02336994 100.74413867 -1.04093281 86.48828031 -1.05181217 72.23240376 C-1.05703339 65.61301828 -1.0641173 58.99364566 -1.07543945 52.37426758 C-1.08629527 45.98764609 -1.09228258 39.60103697 -1.09487724 33.21440697 C-1.09672662 30.77633659 -1.10033791 28.33826691 -1.10573006 25.9002018 C-1.11297617 22.48854731 -1.11398942 19.07694414 -1.11352539 15.6652832 C-1.1189183 14.14937592 -1.1189183 14.14937592 -1.12442017 12.60284424 C-1.12235817 11.20419884 -1.12235817 11.20419884 -1.12025452 9.77729797 C-1.12117631 8.97072911 -1.1220981 8.16416025 -1.12304783 7.33314991 C-0.99003799 4.81110708 -0.55074815 2.46186098 0 0 Z " fill="#9C6ABC" transform="translate(660,186)"/>
<path d="M0 0 C0.99 0 1.98 0 3 0 C3 0.66 3 1.32 3 2 C3.928125 2.309375 4.85625 2.61875 5.8125 2.9375 C7.875 3.625 9.9375 4.3125 12 5 C12.99 4.67 13.98 4.34 15 4 C15.33 4.495 15.66 4.99 16 5.5 C18.36685336 7.27514002 19.18140605 7.15139038 22.0625 7.0625 C23.361875 7.041875 24.66125 7.02125 26 7 C26.66 7.66 27.32 8.32 28 9 C31.58343976 9.16677282 31.58343976 9.16677282 35 9 C35 9.66 35 10.32 35 11 C35.66386719 10.835 36.32773437 10.67 37.01171875 10.5 C40.63385762 9.89394278 44.15593203 9.93500955 47.8125 10 C53.30060806 10.05493102 58.58001894 9.90333018 64 9 C64 8.67 64 8.34 64 8 C68.33085971 6.70074209 72.51474352 5.656379 77 5 C77.495 6.485 77.495 6.485 78 8 C75.48025747 8.65035371 72.95934065 9.29537493 70.4375 9.9375 C69.73302734 10.11990234 69.02855469 10.30230469 68.30273438 10.49023438 C45.03966214 16.38640476 19.26365552 13.09969272 -2 2 C-1.34 1.34 -0.68 0.68 0 0 Z " fill="#BA63CB" transform="translate(854,298)"/>
<path d="M0 0 C1.125 1.5 1.125 1.5 2 4 C1.55433468 5.78266126 1.09687621 7.56306399 0.5859375 9.328125 C-1.30688135 17.95937894 -1.44740471 27.31557177 0 36 C0.31416838 41.44558522 0.31416838 41.44558522 -1.0625 43.875 C-2.29254687 46.66310624 -1.70309963 48.75851391 -1.2265625 51.6953125 C-0.82016984 55.82930677 -1.45378594 59.89919288 -2 64 C-2.33 64 -2.66 64 -3 64 C-4.7857859 55.10703282 -5.38489197 46.4991282 -5.375 37.4375 C-5.37556396 36.12934326 -5.37612793 34.82118652 -5.37670898 33.47338867 C-5.24576938 21.85124693 -3.67755472 11.03266416 0 0 Z " fill="#DB2998" transform="translate(1035,181)"/>
<path d="M0 0 C1.08522194 0.00068733 1.08522194 0.00068733 2.19236755 0.00138855 C3.71965172 0.00440627 5.24693295 0.01227824 6.77416992 0.0246582 C9.11583313 0.04292771 11.45710104 0.04516773 13.79882812 0.04492188 C15.28255551 0.04983684 16.76628022 0.05566506 18.25 0.0625 C18.95210098 0.06361282 19.65420197 0.06472565 20.37757874 0.06587219 C25.32642099 0.11438237 25.32642099 0.11438237 27.55859375 1.23046875 C27.22859375 2.22046875 26.89859375 3.21046875 26.55859375 4.23046875 C25.56859375 3.57046875 24.57859375 2.91046875 23.55859375 2.23046875 C19.41432166 1.82302627 15.26975366 1.85885995 11.10693359 1.85986328 C9.0652365 1.855483 7.02569063 1.81913414 4.984375 1.78125 C3.69917969 1.77738281 2.41398438 1.77351562 1.08984375 1.76953125 C-0.09029297 1.76131348 -1.27042969 1.7530957 -2.48632812 1.74462891 C-5.49013379 1.93570145 -5.49013379 1.93570145 -7.10580444 3.96032715 C-8.6504219 6.58573566 -8.80112303 8.01509469 -8.76611328 11.03857422 C-8.76269928 11.99799927 -8.75928528 12.95742432 -8.75576782 13.94592285 C-8.73710663 14.98599487 -8.71844543 16.02606689 -8.69921875 17.09765625 C-8.69223969 18.18912964 -8.68526062 19.28060303 -8.67807007 20.40515137 C-8.66192069 22.75263602 -8.63919727 25.10008277 -8.6105957 27.44744873 C-8.53659986 33.57285339 -8.51012116 39.69846502 -8.48046875 45.82421875 C-8.46992462 47.65936539 -8.46992462 47.65936539 -8.45916748 49.53158569 C-8.40862727 60.56341117 -8.60719512 71.57922977 -8.94140625 82.60546875 C-8.96559631 83.41900818 -8.98978638 84.23254761 -9.01470947 85.07073975 C-9.14657956 89.45769274 -9.28838721 93.84419417 -9.44140625 98.23046875 C-9.77140625 98.23046875 -10.10140625 98.23046875 -10.44140625 98.23046875 C-10.51080289 85.74820041 -10.56416485 73.26597768 -10.59684277 60.78355598 C-10.61252357 54.98795908 -10.63380587 49.1924938 -10.66772461 43.39697266 C-10.70023196 37.80786718 -10.71824105 32.21888858 -10.72603798 26.62969589 C-10.73159703 24.49335608 -10.7424519 22.3570235 -10.75859642 20.22073746 C-10.78025604 17.23701007 -10.78337799 14.2538124 -10.78198242 11.27001953 C-10.79276825 10.37953918 -10.80355408 9.48905884 -10.81466675 8.57159424 C-10.8021698 6.11550903 -10.8021698 6.11550903 -10.44140625 2.23046875 C-6.82000292 -0.18380013 -4.1809036 -0.04291237 0 0 Z " fill="#E033AB" transform="translate(820.44140625,-0.23046875)"/>
<path d="M0 0 C1.98 0.99 1.98 0.99 4 2 C4 3.32 4 4.64 4 6 C4.61875 6.556875 5.2375 7.11375 5.875 7.6875 C8.60819065 10.66185453 8.8805725 13.16356936 9.5078125 17.07421875 C9.67023437 17.70972656 9.83265625 18.34523438 10 19 C10.66 19.33 11.32 19.66 12 20 C12.33 20.99 12.66 21.98 13 23 C14.32303717 23.3721042 15.65737935 23.70630173 17 24 C18.35439668 26.70879335 18.06501451 29.00933268 18 32 C8.93603571 25.45380357 3.44121505 13.42291098 0 3 C0 2.01 0 1.02 0 0 Z " fill="#AF42D5" transform="translate(814,251)"/>
<path d="M0 0 C0.66 0 1.32 0 2 0 C2 15.84 2 31.68 2 48 C1.01 48 0.02 48 -1 48 C-1.02474909 41.96769509 -1.04288334 35.93541985 -1.05493164 29.90307617 C-1.0599553 27.85163864 -1.06677537 25.80020468 -1.07543945 23.7487793 C-1.08759112 20.7973543 -1.09324804 17.84597673 -1.09765625 14.89453125 C-1.10281754 13.97976517 -1.10797882 13.06499908 -1.11329651 12.12251282 C-1.11366265 7.95115808 -1.06733315 4.06620692 0 0 Z " fill="#585698" transform="translate(38,198)"/>
<path d="M0 0 C2.12890625 0.05859375 2.12890625 0.05859375 4.5625 0.4375 C6.03657187 0.66155892 7.51580484 0.85767992 9 1 C9.33 0.67 9.66 0.34 10 0 C11.56172745 -0.08685603 13.12729344 -0.10702219 14.69140625 -0.09765625 C15.63564453 -0.09443359 16.57988281 -0.09121094 17.55273438 -0.08789062 C18.54595703 -0.07951172 19.53917969 -0.07113281 20.5625 -0.0625 C21.55958984 -0.05798828 22.55667969 -0.05347656 23.58398438 -0.04882812 C26.05604849 -0.03700007 28.52799518 -0.02051849 31 0 C31 1.32 31 2.64 31 4 C29.79053711 3.99214478 29.79053711 3.99214478 28.55664062 3.98413086 C24.87110181 3.96322638 21.18557552 3.95029714 17.5 3.9375 C16.2315625 3.92912109 14.963125 3.92074219 13.65625 3.91210938 C7.33916501 3.89565863 1.24189628 3.99908986 -5 5 C-4.34 4.67 -3.68 4.34 -3 4 C-2.67 3.34 -2.34 2.68 -2 2 C-1.34 1.34 -0.68 0.68 0 0 Z " fill="#B73CD0" transform="translate(724,163)"/>
<path d="M0 0 C0.66 0.33 1.32 0.66 2 1 C2.48969087 3.62679856 2.85035225 6.16124504 3.125 8.8125 C3.2084668 9.587146 3.29193359 10.36179199 3.37792969 11.15991211 C4.58562236 23.05075554 3.67426657 34.22033879 2 46 C1.67 46 1.34 46 1 46 C1 32.47 1 18.94 1 5 C0.34 4.67 -0.32 4.34 -1 4 C-0.67 2.68 -0.34 1.36 0 0 Z " fill="#D448AA" transform="translate(987,194)"/>
<path d="M0 0 C0.97839844 0.144375 1.95679688 0.28875 2.96484375 0.4375 C15.27306089 2.20547905 25.67342373 1.96383576 38 0 C38.495 0.99 38.495 0.99 39 2 C38.67 2.66 38.34 3.32 38 4 C30.85812117 5.58239422 23.14588287 5.12262817 15.875 5.0625 C14.2971875 5.05573242 14.2971875 5.05573242 12.6875 5.04882812 C10.12493779 5.03718011 7.56250123 5.02082553 5 5 C4.67 4.34 4.34 3.68 4 3 C1.98330173 1.86649466 1.98330173 1.86649466 0 1 C0 0.67 0 0.34 0 0 Z " fill="#BF44C5" transform="translate(880,269)"/>
<path d="M0 0 C-3 2 -3 2 -5.1875 1.75 C-7.29346583 1.18840911 -9.39126423 0.59603426 -11.484375 -0.01171875 C-16.6426105 -1.29730794 -21.76864758 -1.41534885 -27.0625 -1.5625 C-33.11580787 -1.75460363 -39.02147096 -1.9966685 -45 -3 C-45 -3.33 -45 -3.66 -45 -4 C-29.8416164 -6.24568646 -14.59080552 -4.63690854 0 0 Z " fill="#D650AD" transform="translate(933,130)"/>
<path d="M0 0 C8.89655172 0.88965517 8.89655172 0.88965517 12 3 C15.16301184 9.32602368 12.35600815 18.47944693 11 25.0625 C10.80921875 26.02349609 10.6184375 26.98449219 10.421875 27.97460938 C9.95551945 30.318046 9.48145534 32.65962765 9 35 C8.67 35 8.34 35 8 35 C8.04882812 31.97265625 8.04882812 31.97265625 8.09765625 28.9453125 C8.12649242 26.91814596 8.12649242 26.91814596 7 25 C7.26953125 22.43359375 7.26953125 22.43359375 7.8125 19.4375 C7.98394531 18.44621094 8.15539062 17.45492187 8.33203125 16.43359375 C8.55246094 15.63050781 8.77289062 14.82742187 9 14 C9.66 13.67 10.32 13.34 11 13 C11.40729228 10.67843403 11.74438677 8.3431213 12 6 C11.34 6 10.68 6 10 6 C10 5.34 10 4.68 10 4 C9.46375 4.226875 8.9275 4.45375 8.375 4.6875 C4.93918099 5.13958145 2.94233306 3.67178015 0 2 C0 1.34 0 0.68 0 0 Z " fill="#B951C6" transform="translate(756,129)"/>
<path d="M0 0 C0.78383057 0.73452393 0.78383057 0.73452393 1.58349609 1.48388672 C4.77937195 3.48897755 6.90970376 3.32797307 10.6640625 3.2578125 C11.95054687 3.24363281 13.23703125 3.22945313 14.5625 3.21484375 C15.9166843 3.1857039 17.27085123 3.15574669 18.625 3.125 C21.28382533 3.07885301 23.94253778 3.04251865 26.6015625 3.0078125 C27.78057129 2.98348145 28.95958008 2.95915039 30.17431641 2.93408203 C33 3 33 3 35 4 C35 3.34 35 2.68 35 2 C35.99 2.33 36.98 2.66 38 3 C37.67 3.66 37.34 4.32 37 5 C31.77774993 6.74075002 26.16176587 6.18591808 20.69384766 6.18530273 C18.50794081 6.18749205 16.32253653 6.20566857 14.13671875 6.22460938 C12.74739756 6.22754301 11.35807397 6.22952801 9.96875 6.23046875 C8.70482422 6.23457764 7.44089844 6.23868652 6.13867188 6.24291992 C3 6 3 6 0 4 C0 2.68 0 1.36 0 0 Z " fill="#A07ECC" transform="translate(661,300)"/>
<path d="M0 0 C23.1 0 46.2 0 70 0 C66.65389614 2.23073591 64.95319395 2.1139592 61.04296875 2 C58.82594972 1.93725071 58.82594972 1.93725071 56 2.5625 C52.92497667 3.0109409 50.38971104 2.67024599 47.33300781 2.25808716 C43.02606214 1.78163467 38.70438032 1.76031958 34.375 1.68359375 C32.89374634 1.6524221 32.89374634 1.6524221 31.38256836 1.62062073 C28.25511039 1.55569247 25.12757473 1.4965063 22 1.4375 C19.86848183 1.39426072 17.73697127 1.35064478 15.60546875 1.30664062 C10.40372588 1.20006997 5.20190723 1.0982026 0 1 C0 0.67 0 0.34 0 0 Z " fill="#EA3C79" transform="translate(1095,197)"/>
<path d="M0 0 C0.99 0.33 1.98 0.66 3 1 C3 1.66 3 2.32 3 3 C4.65 3 6.3 3 8 3 C8.061875 3.99 8.12375 4.98 8.1875 6 C8.83403883 10.65888273 11.13039018 14.33476628 14 18 C14.66 18.33 15.32 18.66 16 19 C16 18.34 16 17.68 16 17 C16.66 17 17.32 17 18 17 C18.12375 17.969375 18.2475 18.93875 18.375 19.9375 C18.58125 20.948125 18.7875 21.95875 19 23 C19.66 23.33 20.32 23.66 21 24 C21 24.66 21 25.32 21 26 C21.99 26.33 22.98 26.66 24 27 C24 27.66 24 28.32 24 29 C12.61381218 24.06512853 4.99794021 10.79555085 0 0 Z " fill="#EF5F82" transform="translate(1260,262)"/>
<path d="M0 0 C1.2538147 -0.0049926 1.2538147 -0.0049926 2.53295898 -0.01008606 C4.30158945 -0.01515232 6.07022948 -0.01749448 7.83886719 -0.01733398 C10.55159135 -0.01952245 13.26391023 -0.03768652 15.9765625 -0.05664062 C17.69270694 -0.05957415 19.40885331 -0.06155922 21.125 -0.0625 C21.93960693 -0.06968552 22.75421387 -0.07687103 23.59350586 -0.08427429 C29.33367354 -0.06085771 29.33367354 -0.06085771 31.5625 2.16796875 C31.1875 5.29296875 31.1875 5.29296875 30.5625 8.16796875 C29.5725 7.50796875 28.5825 6.84796875 27.5625 6.16796875 C27.375 3.54296875 27.375 3.54296875 27.5625 1.16796875 C27.00256348 1.33167969 26.44262695 1.49539062 25.86572266 1.6640625 C23.39589822 2.20441841 21.23711087 2.2654802 18.7109375 2.23046875 C17.77636719 2.22273437 16.84179688 2.215 15.87890625 2.20703125 C13.94140209 2.18130078 12.00390194 2.15526674 10.06640625 2.12890625 C-0.83885897 1.97281678 -0.83885897 1.97281678 -11.4375 4.16796875 C-11.1075 3.17796875 -10.7775 2.18796875 -10.4375 1.16796875 C-7.1771056 -0.46222845 -3.5828944 0.00489454 0 0 Z " fill="#8557C8" transform="translate(386.4375,130.83203125)"/>
<path d="M0 0 C0.33 0 0.66 0 1 0 C1 11.22 1 22.44 1 34 C-2 31 -2 31 -2.34057617 28.27270508 C-2.32486572 27.19915771 -2.30915527 26.12561035 -2.29296875 25.01953125 C-2.28330078 23.85615234 -2.27363281 22.69277344 -2.26367188 21.49414062 C-2.2259668 19.67172852 -2.2259668 19.67172852 -2.1875 17.8125 C-2.17396484 16.58595703 -2.16042969 15.35941406 -2.14648438 14.09570312 C-2.11108741 11.06336336 -2.0617076 8.03190004 -2 5 C-1.34 5 -0.68 5 0 5 C0 3.35 0 1.7 0 0 Z " fill="#545599" transform="translate(39,261)"/>
<path d="M0 0 C2.0625 0.4375 2.0625 0.4375 4 1 C4.33 2.98 4.66 4.96 5 7 C6.65 6.67 8.3 6.34 10 6 C10.103125 6.94875 10.20625 7.8975 10.3125 8.875 C10.68539295 12.29107501 10.68539295 12.29107501 14 14 C16.6875 16 16.6875 16 19 18 C19 18.66 19 19.32 19 20 C19.99 20 20.98 20 22 20 C22 20.99 22 21.98 22 23 C17.52175825 21.56203246 14.44825093 19.09534312 11.0625 15.9375 C10.27407715 15.2108313 10.27407715 15.2108313 9.46972656 14.46948242 C5.21958805 10.44133657 1.87931564 6.11457384 -1 1 C-0.67 0.67 -0.34 0.34 0 0 Z " fill="#D23AA7" transform="translate(1046,273)"/>
<path d="M0 0 C0.66 0.99 1.32 1.98 2 3 C-6.95428088 8.96952059 -24.71174394 6.71470934 -35 5 C-35 4.01 -35 3.02 -35 2 C-33.02 2 -31.04 2 -29 2 C-29 2.66 -29 3.32 -29 4 C-28.34773438 3.835 -27.69546875 3.67 -27.0234375 3.5 C-22.49423488 2.75098458 -17.9872129 2.95826479 -13.4140625 3.0390625 C-8.8225354 3.08825743 -4.53002609 2.76496483 0 2 C0 1.34 0 0.68 0 0 Z " fill="#ED7281" transform="translate(1360,305)"/>
<path d="M0 0 C2.20766656 3.31149984 3.08612084 6.45585742 4.0625 10.25 C4.23587891 10.89324219 4.40925781 11.53648437 4.58789062 12.19921875 C6.64481461 20.03286795 7.13778576 27.39350645 7.0625 35.4375 C7.05798828 36.35982422 7.05347656 37.28214844 7.04882812 38.23242188 C7.03713938 40.48835048 7.02075455 42.74413967 7 45 C5.68 45.66 4.36 46.32 3 47 C3 46.01 3 45.02 3 44 C3.99 44 4.98 44 6 44 C5.54863199 30.35845202 5.54863199 30.35845202 3 17 C2.71576172 15.96746094 2.71576172 15.96746094 2.42578125 14.9140625 C1.96795509 13.27108352 1.48690161 11.63459828 1 10 C0.34 10 -0.32 10 -1 10 C-0.67 6.7 -0.34 3.4 0 0 Z " fill="#ED687C" transform="translate(1204,178)"/>
<path d="M0 0 C0 0.66 0 1.32 0 2 C-0.58885986 1.9285376 -1.17771973 1.8570752 -1.78442383 1.78344727 C-10.75717772 0.82247044 -19.67748461 0.88749154 -28.6875 0.9375 C-30.27538921 0.94252753 -31.86327996 0.94708821 -33.45117188 0.95117188 C-37.30082025 0.96207245 -41.15039253 0.97926717 -45 1 C-45 0.67 -45 0.34 -45 0 C-29.6440288 -2.4087798 -15.35783494 -2.2338669 0 0 Z " fill="#BA5BC5" transform="translate(755,128)"/>
<path d="M0 0 C1.32 0 2.64 0 4 0 C4 0.66 4 1.32 4 2 C8.27101628 1.859247 12.54176247 1.71145337 16.8125 1.5625 C18.6059082 1.50352539 18.6059082 1.50352539 20.43554688 1.44335938 C27.65374956 1.18767372 34.81578561 0.74940928 42 0 C41.67 0.66 41.34 1.32 41 2 C27.54605947 5.41620433 11.39782066 5.51418247 -2 2 C-1.34 1.34 -0.68 0.68 0 0 Z " fill="#8D71C5" transform="translate(511,307)"/>
<path d="M0 0 C0.99 0 1.98 0 3 0 C3 0.66 3 1.32 3 2 C3.928125 2.309375 4.85625 2.61875 5.8125 2.9375 C7.875 3.625 9.9375 4.3125 12 5 C12.99 4.67 13.98 4.34 15 4 C15.33 4.495 15.66 4.99 16 5.5 C18.38152629 7.28614471 19.16846269 7.12605607 22.0625 7 C23.361875 7 24.66125 7 26 7 C26.99 8.485 26.99 8.485 28 10 C23.09506883 11.57693053 19.41848084 10.29600892 14.6875 8.8125 C13.93218994 8.58344971 13.17687988 8.35439941 12.39868164 8.1184082 C7.30668062 6.53008266 2.63734034 4.66400403 -2 2 C-1.34 1.34 -0.68 0.68 0 0 Z " fill="#B53AD6" transform="translate(854,298)"/>
<path d="M0 0 C0.66 0 1.32 0 2 0 C1.93433838 0.74338623 1.86867676 1.48677246 1.80102539 2.25268555 C1.03704791 11.43795377 0.69253917 20.60298346 0.4375 29.8125 C0.39416168 31.29493013 0.35054344 32.7773521 0.30664062 34.25976562 C0.2012123 37.83975588 0.09952889 41.41984029 0 45 C0.66 45 1.32 45 2 45 C1.67 46.32 1.34 47.64 1 49 C0.34 48.67 -0.32 48.34 -1 48 C-1.33 48.66 -1.66 49.32 -2 50 C-1.88245729 43.36127713 -1.75762474 36.72272025 -1.62768555 30.08422852 C-1.5843322 27.82514567 -1.54265742 25.56602997 -1.50268555 23.30688477 C-1.44499287 20.06256196 -1.38129531 16.8184046 -1.31640625 13.57421875 C-1.29969376 12.56163498 -1.28298126 11.54905121 -1.26576233 10.50578308 C-1.24581711 9.56503433 -1.22587189 8.62428558 -1.20532227 7.6550293 C-1.18977798 6.82674118 -1.1742337 5.99845306 -1.15821838 5.14506531 C-1 3 -1 3 0 0 Z " fill="#8C41C3" transform="translate(697,254)"/>
<path d="M0 0 C0.33 0 0.66 0 1 0 C1.66 3.3 2.32 6.6 3 10 C3.66 10 4.32 10 5 10 C6.25664978 12.90600261 7 14.79604584 7 18 C7.99 18 8.98 18 10 18 C10.33 20.64 10.66 23.28 11 26 C10.34 26.33 9.68 26.66 9 27 C-1.5303803 6.71819904 -1.5303803 6.71819904 -0.5625 1.7578125 C-0.376875 1.17773438 -0.19125 0.59765625 0 0 Z " fill="#D240A9" transform="translate(1034,245)"/>
<path d="M0 0 C2.3140256 0.33301958 2.3140256 0.33301958 5.8359375 0.25390625 C9.0234375 0.25390625 9.0234375 0.25390625 12.0234375 1.25390625 C12.0234375 1.91390625 12.0234375 2.57390625 12.0234375 3.25390625 C16.3134375 3.25390625 20.6034375 3.25390625 25.0234375 3.25390625 C25.0234375 3.58390625 25.0234375 3.91390625 25.0234375 4.25390625 C12.31047855 4.63444937 0.49615728 3.75739122 -11.9765625 1.25390625 C-11.9765625 0.92390625 -11.9765625 0.59390625 -11.9765625 0.25390625 C-7.75424804 -0.6961145 -4.27380878 -0.64680248 0 0 Z " fill="#CE5BA5" transform="translate(1104.9765625,306.74609375)"/>
<path d="M0 0 C1.32 0 2.64 0 4 0 C4 0.66 4 1.32 4 2 C4.66 2 5.32 2 6 2 C6.99 3.485 6.99 3.485 8 5 C10.05925139 5.72382467 10.05925139 5.72382467 12 6 C12.33 5.34 12.66 4.68 13 4 C13.66 4 14.32 4 15 4 C15.12375 5.670625 15.12375 5.670625 15.25 7.375 C15.57873787 11.05753944 15.57873787 11.05753944 18.0625 12.4375 C18.701875 12.623125 19.34125 12.80875 20 13 C20 13.66 20 14.32 20 15 C16.33509512 13.69248561 13.59072086 12.12195206 10.5625 9.6875 C9.79164063 9.07003906 9.02078125 8.45257813 8.2265625 7.81640625 C7.49179687 7.21699219 6.75703125 6.61757813 6 6 C5.36835937 5.49339844 4.73671875 4.98679687 4.0859375 4.46484375 C2.70019525 3.3385177 1.34604731 2.17347714 0 1 C0 0.67 0 0.34 0 0 Z " fill="#B140D7" transform="translate(832,284)"/>
<path d="M0 0 C0.33 0.99 0.66 1.98 1 3 C1.66 3.33 2.32 3.66 3 4 C2.51781006 5.26384521 2.51781006 5.26384521 2.02587891 6.55322266 C0.93293357 10.2253317 0.68399664 13.32413089 0.5859375 17.1484375 C0.56657135 17.80582916 0.5472052 18.46322083 0.5272522 19.14053345 C0.46797539 21.21856135 0.42128206 23.29664624 0.375 25.375 C0.33677222 26.7929915 0.29771777 28.21096097 0.2578125 29.62890625 C0.16231829 33.08573461 0.07809811 36.54272983 0 40 C-0.33 40 -0.66 40 -1 40 C-2.32045612 26.27668818 -1.66476289 13.64511008 0 0 Z " fill="#8D73C9" transform="translate(439,195)"/>
<path d="M0 0 C0.78375 0.04125 1.5675 0.0825 2.375 0.125 C2.705 1.115 3.035 2.105 3.375 3.125 C6.38347418 4.35020264 6.38347418 4.35020264 9.375 5.125 C9.375 5.785 9.375 6.445 9.375 7.125 C10.365 7.125 11.355 7.125 12.375 7.125 C12.705 8.115 13.035 9.105 13.375 10.125 C6.85680123 8.22963724 1.19685199 5.6071006 -4.625 2.125 C-2.625 0.125 -2.625 0.125 0 0 Z " fill="#D43AAA" transform="translate(1072.625,294.875)"/>
<path d="M0 0 C-2.38050542 3.57075813 -3.88218901 4.01654537 -7.8125 5.5625 C-8.85019531 5.97628906 -9.88789062 6.39007813 -10.95703125 6.81640625 C-11.96121094 7.20699219 -12.96539063 7.59757813 -14 8 C-15.667133 8.66549964 -17.33397124 9.33174077 -19 10 C-19 8.68 -19 7.36 -19 6 C-18.13375 5.7525 -17.2675 5.505 -16.375 5.25 C-12.91936494 4.14171164 -12.91936494 4.14171164 -10.0625 1.875 C-6.42371202 -0.35282937 -4.19099295 -0.33527944 0 0 Z " fill="#CA46B7" transform="translate(886,164)"/>
<path d="M0 0 C1.03833984 0.10828125 1.03833984 0.10828125 2.09765625 0.21875 C10.43157759 1.00931961 18.63740393 1.1028188 27 1 C21.98947213 3.60415593 17.57216055 5.54321919 12 4 C9.41666913 3.71028065 6.83267893 3.49648371 4.2421875 3.28125 C2 3 2 3 0 2 C0 1.34 0 0.68 0 0 Z " fill="#DA3F99" transform="translate(1104,270)"/>
<path d="M0 0 C0.33 0 0.66 0 1 0 C1.02684679 2.64590014 1.04676357 5.29153096 1.0625 7.9375 C1.07087891 8.69224609 1.07925781 9.44699219 1.08789062 10.22460938 C1.09652441 12.14994313 1.05224333 14.07535581 1 16 C0.67 16.33 0.34 16.66 0 17 C-0.24261665 19.25543624 -0.38332133 21.50945523 -0.5234375 23.7734375 C-1.08976409 26.41938961 -1.86920175 27.37303582 -4 29 C-4.66 29 -5.32 29 -6 29 C-5.80664062 28.3709375 -5.61328125 27.741875 -5.4140625 27.09375 C-4.59458208 24.40001239 -3.7930015 21.70164727 -3 19 C-2.79890625 18.32066406 -2.5978125 17.64132813 -2.390625 16.94140625 C-0.86000605 11.36392357 -0.40214788 5.75706438 0 0 Z " fill="#F18B7F" transform="translate(1391,221)"/>
<path d="M0 0 C0.33 0 0.66 0 1 0 C2.66666667 6.66666667 4.33333333 13.33333333 6 20 C5.34 20 4.68 20 4 20 C1.78252188 17.69723426 1.03239994 16.47519908 0.8125 13.25 C0.9053125 12.13625 0.9053125 12.13625 1 11 C0.01 10.67 -0.98 10.34 -2 10 C-2.79198196 7.14886495 -3.21481122 5.55237171 -2.125 2.75 C-1 1 -1 1 0 0 Z " fill="#BA3CC5" transform="translate(850,229)"/>
<path d="M0 0 C0.99 0.66 1.98 1.32 3 2 C3 2.66 3 3.32 3 4 C4.65 4.33 6.3 4.66 8 5 C8 6.32 8 7.64 8 9 C9.32 9.33 10.64 9.66 12 10 C11.67 11.65 11.34 13.3 11 15 C8.84776392 12.92462949 6.9220268 10.89603574 5.125 8.5 C2.71779526 5.66799442 0.1545553 3.93574984 -3 2 C-2.01 1.34 -1.02 0.68 0 0 Z " fill="#D23CA9" transform="translate(931,170)"/>
<path d="M0 0 C0.33 0.99 0.66 1.98 1 3 C-1.56076097 3.67404284 -4.12326583 4.339414 -6.6875 5 C-7.40873047 5.19078125 -8.12996094 5.3815625 -8.87304688 5.578125 C-12.66850961 6.54865428 -16.04615439 7.24955239 -20 7 C-20.33 6.34 -20.66 5.68 -21 5 C-18.36 4.67 -15.72 4.34 -13 4 C-13 3.67 -13 3.34 -13 3 C-11.329375 2.5359375 -11.329375 2.5359375 -9.625 2.0625 C-2.58823529 0 -2.58823529 0 0 0 Z " fill="#BB54C9" transform="translate(931,303)"/>
<path d="M0 0 C1.28132812 0.00902344 2.56265625 0.01804688 3.8828125 0.02734375 C4.87023437 0.03894531 5.85765625 0.05054688 6.875 0.0625 C6.545 0.7225 6.215 1.3825 5.875 2.0625 C2.245 1.7325 -1.385 1.4025 -5.125 1.0625 C-6.99976019 4.81202038 -7.39986272 6.27523132 -7.5390625 10.265625 C-7.57773438 11.2453125 -7.61640625 12.225 -7.65625 13.234375 C-7.6871875 14.25015625 -7.718125 15.2659375 -7.75 16.3125 C-7.78867188 17.34375 -7.82734375 18.375 -7.8671875 19.4375 C-7.96131674 21.9789894 -8.04694979 24.52047433 -8.125 27.0625 C-8.455 27.0625 -8.785 27.0625 -9.125 27.0625 C-9.125 18.4825 -9.125 9.9025 -9.125 1.0625 C-6.12186252 -0.43906874 -3.33432478 -0.03031204 0 0 Z " fill="#6754BF" transform="translate(160.125,130.9375)"/>
<path d="M0 0 C3.43742918 -0.05802698 6.87473253 -0.09360486 10.3125 -0.125 C11.28896484 -0.14175781 12.26542969 -0.15851563 13.27148438 -0.17578125 C14.20927734 -0.18222656 15.14707031 -0.18867188 16.11328125 -0.1953125 C16.97735596 -0.20578613 17.84143066 -0.21625977 18.73168945 -0.22705078 C21 0 21 0 24 2 C24 2.66 24 3.32 24 4 C23.01 3.67 22.02 3.34 21 3 C19.37432921 2.85284801 17.74413143 2.75278133 16.11328125 2.68359375 C15.17548828 2.64169922 14.23769531 2.59980469 13.27148438 2.55664062 C12.29501953 2.51732422 11.31855469 2.47800781 10.3125 2.4375 C9.32443359 2.39431641 8.33636719 2.35113281 7.31835938 2.30664062 C4.87904454 2.20058346 2.43962887 2.09852286 0 2 C0 1.34 0 0.68 0 0 Z " fill="#7158C9" transform="translate(249,131)"/>
<path d="M0 0 C2.86562595 2.47906057 4.1617794 5.12161059 5.6875 8.5625 C6.12449219 9.53316406 6.56148437 10.50382813 7.01171875 11.50390625 C8 14 8 14 8 16 C7.01 16.33 6.02 16.66 5 17 C4.01 14.03 3.02 11.06 2 8 C1.34 8 0.68 8 0 8 C-1.125 2.25 -1.125 2.25 0 0 Z " fill="#A053D2" transform="translate(605,165)"/>
<path d="M0 0 C0.66 0.33 1.32 0.66 2 1 C1.505 1.61875 1.01 2.2375 0.5 2.875 C-1.19222773 4.83880904 -1.19222773 4.83880904 -1 7 C-2.051875 7.103125 -3.10375 7.20625 -4.1875 7.3125 C-7.87430754 7.97733415 -9.96638599 8.88566296 -13 11 C-13.66 10.34 -14.32 9.68 -15 9 C-12.87562549 7.68647829 -10.75053408 6.37414287 -8.625 5.0625 C-8.02171875 4.68931641 -7.4184375 4.31613281 -6.796875 3.93164062 C-2.2265625 1.11328125 -2.2265625 1.11328125 0 0 Z " fill="#E65486" transform="translate(1077,134)"/>
<path d="M0 0 C2.52775351 3.79163027 2.22443035 6.80874031 2.125 11.1875 C2.11597656 11.93708984 2.10695313 12.68667969 2.09765625 13.45898438 C2.07412578 15.30612654 2.03825561 17.15310412 2 19 C1.34 19 0.68 19 0 19 C-0.88789523 13.00670719 -1.40182396 7.06281442 -1 1 C-0.67 0.67 -0.34 0.34 0 0 Z " fill="#BF47CD" transform="translate(848,209)"/>
<path d="M0 0 C0.33 0 0.66 0 1 0 C1.36295678 3.14488502 1.71388796 6.29099516 2.0625 9.4375 C2.16626953 10.33533203 2.27003906 11.23316406 2.37695312 12.15820312 C2.51713867 13.43920898 2.51713867 13.43920898 2.66015625 14.74609375 C2.74918213 15.53685303 2.83820801 16.3276123 2.92993164 17.14233398 C2.96461548 18.06187866 2.96461548 18.06187866 3 19 C2.67 19.33 2.34 19.66 2 20 C1.76712992 21.68183948 1.58735834 23.3712416 1.4375 25.0625 C1.35371094 25.98160156 1.26992187 26.90070313 1.18359375 27.84765625 C1.12300781 28.55792969 1.06242187 29.26820313 1 30 C0.67 30 0.34 30 0 30 C0 20.1 0 10.2 0 0 Z " fill="#CC579C" transform="translate(1030,203)"/>
<path d="M0 0 C0.721875 0.10699219 1.44375 0.21398437 2.1875 0.32421875 C2.98027344 0.4325 3.77304687 0.54078125 4.58984375 0.65234375 C5.44707031 0.7709375 6.30429687 0.88953125 7.1875 1.01171875 C9.04085494 1.20707933 10.89503477 1.3947911 12.75 1.57421875 C13.59691406 1.65800781 14.44382812 1.74179688 15.31640625 1.828125 C15.93386719 1.88871094 16.55132813 1.94929687 17.1875 2.01171875 C17.1875 2.34171875 17.1875 2.67171875 17.1875 3.01171875 C15.59421875 3.10259766 15.59421875 3.10259766 13.96875 3.1953125 C3.55034897 3.80442113 3.55034897 3.80442113 -6.8125 5.01171875 C-6.1525 4.68171875 -5.4925 4.35171875 -4.8125 4.01171875 C-4.4825 3.35171875 -4.1525 2.69171875 -3.8125 2.01171875 C-1.8125 0.01171875 -1.8125 0.01171875 0 0 Z " fill="#B558CF" transform="translate(725.8125,162.98828125)"/>
<path d="M0 0 C7.03128878 0.43384548 13.329015 1.74321997 20 4 C20 4.33 20 4.66 20 5 C18.906875 4.979375 17.81375 4.95875 16.6875 4.9375 C13.05615809 4.81455548 13.05615809 4.81455548 10 6 C10 5.34 10 4.68 10 4 C8.68 4 7.36 4 6 4 C6 3.34 6 2.68 6 2 C4.35 2 2.7 2 1 2 C0.67 1.34 0.34 0.68 0 0 Z " fill="#F58A77" transform="translate(1348,126)"/>
<path d="M0 0 C5.03681497 3.07122864 8.94510767 6.72916666 13 11 C11.1328125 11.609375 11.1328125 11.609375 9 12 C6.4299869 9.88351863 4.85230389 7.77845583 3 5 C1.68 5 0.36 5 -1 5 C-0.67 3.35 -0.34 1.7 0 0 Z " fill="#9A45CF" transform="translate(584,142)"/>
<path d="M0 0 C0.99 0 1.98 0 3 0 C2.938125 0.86625 2.87625 1.7325 2.8125 2.625 C3.02519978 6.45359599 4.18235576 8.66765223 6 12 C6 12.66 6 13.32 6 14 C6.66 14.33 7.32 14.66 8 15 C7.67 16.98 7.34 18.96 7 21 C4.76872275 17.65308412 3.61467238 14.28388372 2.375 10.5 C2.03082031 9.48486328 2.03082031 9.48486328 1.6796875 8.44921875 C0.70703083 5.51387986 0 3.11291919 0 0 Z " fill="#ED6783" transform="translate(1253,240)"/>
<path d="M0 0 C0.53625 0.680625 1.0725 1.36125 1.625 2.0625 C5.54496843 6.91088201 9.50032423 11.67338869 14 16 C11.6875 16.3125 11.6875 16.3125 9 16 C7.3125 13.5625 7.3125 13.5625 6 11 C5.34 10.67 4.68 10.34 4 10 C4 9.01 4 8.02 4 7 C1.525 6.01 1.525 6.01 -1 5 C-0.67 3.35 -0.34 1.7 0 0 Z " fill="#D8469F" transform="translate(1076,248)"/>
<path d="M0 0 C1.46469727 0.07734375 1.46469727 0.07734375 2.95898438 0.15625 C4.47008789 0.25292969 4.47008789 0.25292969 6.01171875 0.3515625 C7.55182617 0.43664062 7.55182617 0.43664062 9.12304688 0.5234375 C11.64919101 0.66443159 14.17426876 0.81579432 16.69921875 0.9765625 C16.69921875 1.3065625 16.69921875 1.6365625 16.69921875 1.9765625 C16.0944873 2.00161865 15.48975586 2.0266748 14.86669922 2.05249023 C12.10236255 2.16919256 9.33830509 2.29157984 6.57421875 2.4140625 C5.62289062 2.45337891 4.6715625 2.49269531 3.69140625 2.53320312 C-1.04707112 2.74709273 -5.63672426 3.04218071 -10.30078125 3.9765625 C-10.30078125 3.3165625 -10.30078125 2.6565625 -10.30078125 1.9765625 C-6.65003907 0.29071938 -4.00453959 -0.2341836 0 0 Z " fill="#A376D0" transform="translate(521.30078125,163.0234375)"/>
<path d="M0 0 C0.33 0 0.66 0 1 0 C2.32 5.28 3.64 10.56 5 16 C3.68 16 2.36 16 1 16 C-0.79074734 10.10106757 -1.08360869 6.06820868 0 0 Z " fill="#D44C99" transform="translate(1071,232)"/>
<path d="M0 0 C0.33 0 0.66 0 1 0 C1 5.28 1 10.56 1 16 C0.67 15.34 0.34 14.68 0 14 C-0.66 14 -1.32 14 -2 14 C-2 10.04 -2 6.08 -2 2 C-1.34 2 -0.68 2 0 2 C0 1.34 0 0.68 0 0 Z " fill="#9363B8" transform="translate(618,206)"/>
<path d="M0 0 C4.21814817 3.9700218 7.61227103 8.30840284 11 13 C10.01 13.495 10.01 13.495 9 14 C9 13.34 9 12.68 9 12 C7.68 12 6.36 12 5 12 C4.71125 11.195625 4.4225 10.39125 4.125 9.5625 C3.26737432 6.8673532 3.26737432 6.8673532 1 6 C0.375 2.9375 0.375 2.9375 0 0 Z " fill="#D9419A" transform="translate(966,151)"/>
<path d="M0 0 C0.66 0 1.32 0 2 0 C3.71050559 4.97601626 2.00885647 8.42616295 0 13 C-0.66 13 -1.32 13 -2 13 C-2.33 13.99 -2.66 14.98 -3 16 C-2.52013969 10.43109483 -1.70084819 5.32932432 0 0 Z " fill="#AA57D9" transform="translate(663,170)"/>
<path d="M0 0 C0.99 0.33 1.98 0.66 3 1 C-0.70090521 4.9252025 -4.54959656 7.94580156 -9 11 C-9.33 10.01 -9.66 9.02 -10 8 C-9.34 8 -8.68 8 -8 8 C-8 7.34 -8 6.68 -8 6 C-6.02 5.34 -4.04 4.68 -2 4 C-2 3.01 -2 2.02 -2 1 C-1.34 0.67 -0.68 0.34 0 0 Z " fill="#C247C4" transform="translate(960,285)"/>
<path d="M0 0 C0.33 0 0.66 0 1 0 C2.01894076 5.84888043 2.11798453 11.50919169 2.0625 17.4375 C2.05798828 18.35982422 2.05347656 19.28214844 2.04882812 20.23242188 C2.03713938 22.48835048 2.02075455 24.74413967 2 27 C0.02 27.99 0.02 27.99 -2 29 C-2 28.01 -2 27.02 -2 26 C-1.01 26 -0.02 26 1 26 C0.67 17.42 0.34 8.84 0 0 Z " fill="#E5748D" transform="translate(1209,196)"/>
<path d="M0 0 C2.05929455 3.43726116 2.05929455 3.43726116 1.79296875 5.96484375 C1.59316406 6.61582031 1.39335938 7.26679688 1.1875 7.9375 C0.88779297 8.97197266 0.88779297 8.97197266 0.58203125 10.02734375 C0.38996094 10.67832031 0.19789062 11.32929688 0 12 C-0.34665557 13.66394675 -0.68676972 15.32943851 -1 17 C-1.66 17 -2.32 17 -3 17 C-3.33 17.99 -3.66 18.98 -4 20 C-3.42978625 13.04339229 -1.98697306 6.68572695 0 0 Z " fill="#D5529B" transform="translate(1035,181)"/>
<path d="M0 0 C3.83604703 7.10843 3.0313377 14.25703385 2 22 C1.67 22 1.34 22 1 22 C0.02700844 17.14270355 -0.12038805 12.5499375 -0.0625 7.625 C-0.05798828 6.88894531 -0.05347656 6.15289062 -0.04882812 5.39453125 C-0.03715142 3.59631842 -0.01922011 1.79814803 0 0 Z " fill="#D8389F" transform="translate(1031,223)"/>
<path d="M0 0 C9.43269231 9.08333333 9.43269231 9.08333333 10 14 C9.01 13.67 8.02 13.34 7 13 C5.8125 10.4375 5.8125 10.4375 5 8 C4.01 8 3.02 8 2 8 C2 7.01 2 6.02 2 5 C1.34 5 0.68 5 0 5 C0 3.35 0 1.7 0 0 Z " fill="#F1667B" transform="translate(1298,250)"/>
<path d="M0 0 C0.66 0 1.32 0 2 0 C1.42978625 6.95660771 -0.01302694 13.31427305 -2 20 C-2.33 20 -2.66 20 -3 20 C-3.05416188 18.39620659 -3.09286638 16.79188594 -3.125 15.1875 C-3.14820313 14.29417969 -3.17140625 13.40085938 -3.1953125 12.48046875 C-3 10 -3 10 -1 7 C-0.60612212 4.67612053 -0.26513915 2.34206251 0 0 Z " fill="#F38A79" transform="translate(1429,235)"/>
<path d="M0 0 C0.66 0.33 1.32 0.66 2 1 C3.18823797 4.56471391 3.26274852 7.2558336 3 11 C1.5 13.4375 1.5 13.4375 0 15 C-0.75612577 9.76528314 -1.2063366 5.22745859 0 0 Z " fill="#7963C5" transform="translate(146,54)"/>
<path d="M0 0 C1.32 0.66 2.64 1.32 4 2 C-0.18461538 6.92307692 -0.18461538 6.92307692 -4.3125 7.3125 C-5.199375 7.209375 -6.08625 7.10625 -7 7 C-4.78071806 4.09197539 -3.07030857 2.04687238 0 0 Z " fill="#AF46D8" transform="translate(686,138)"/>
<path d="M0 0 C0 0.66 0 1.32 0 2 C-0.84304688 2.13277344 -1.68609375 2.26554688 -2.5546875 2.40234375 C-3.65039062 2.57894531 -4.74609375 2.75554687 -5.875 2.9375 C-6.96554687 3.11152344 -8.05609375 3.28554687 -9.1796875 3.46484375 C-11.93821546 3.85551159 -11.93821546 3.85551159 -14 5 C-15.67654729 4.72057545 -17.34608154 4.39171753 -19 4 C-16.05075061 2.37893452 -13.36193006 1.51556732 -10.0625 0.875 C-8.81146484 0.62363281 -8.81146484 0.62363281 -7.53515625 0.3671875 C-4.98541981 -0.00211177 -2.57240933 -0.06442528 0 0 Z " fill="#F58B7F" transform="translate(1331,126)"/>
<path d="M0 0 C1.98 0.495 1.98 0.495 4 1 C4.33 2.98 4.66 4.96 5 7 C6.65 6.67 8.3 6.34 10 6 C9.67 6.99 9.34 7.98 9 9 C6.29068581 8.84518205 4.53415961 8.51827919 2.5546875 6.59765625 C1.32320358 5.10228292 0.1570163 3.5537076 -1 2 C-0.67 1.34 -0.34 0.68 0 0 Z " fill="#CF32A9" transform="translate(1046,273)"/>
<path d="M0 0 C1.65 0 3.3 0 5 0 C3.68 3.3 2.36 6.6 1 10 C0.34 9.67 -0.32 9.34 -1 9 C-1.09765625 2.84765625 -1.09765625 2.84765625 -1 1 C-0.67 0.67 -0.34 0.34 0 0 Z " fill="#675DBB" transform="translate(42,177)"/>
<path d="M0 0 C0.99 0.66 1.98 1.32 3 2 C2.6017125 3.29745172 2.18056078 4.5878981 1.75 5.875 C1.51796875 6.59429687 1.2859375 7.31359375 1.046875 8.0546875 C-0.25137839 10.46711358 -1.49377424 11.01615105 -4 12 C-3.52309796 10.37433394 -3.04340334 8.74948689 -2.5625 7.125 C-2.29566406 6.22007812 -2.02882813 5.31515625 -1.75390625 4.3828125 C-1 2 -1 2 0 0 Z " fill="#8964CC" transform="translate(446,173)"/>
<path d="M0 0 C1.32 0 2.64 0 4 0 C3.67854004 0.5662207 3.35708008 1.13244141 3.02587891 1.71582031 C1.92710244 4.16231069 1.69398432 5.88172002 1.5859375 8.546875 C1.54726563 9.39121094 1.50859375 10.23554688 1.46875 11.10546875 C1.4378125 11.97816406 1.406875 12.85085938 1.375 13.75 C1.33632813 14.63816406 1.29765625 15.52632812 1.2578125 16.44140625 C1.16379127 18.6273998 1.07813857 20.81339062 1 23 C0.67 23 0.34 23 0 23 C0 15.41 0 7.82 0 0 Z " fill="#E625A1" transform="translate(810,2)"/>
<path d="M0 0 C1.65 0 3.3 0 5 0 C5 0.66 5 1.32 5 2 C6.65 1.67 8.3 1.34 10 1 C10 1.99 10 2.98 10 4 C11.43750191 5.68798827 11.43750191 5.68798827 13 7 C9.34899606 7 7.89878202 5.9552415 4.8125 4.0625 C3.46091797 3.24458984 3.46091797 3.24458984 2.08203125 2.41015625 C1.39496094 1.94480469 0.70789062 1.47945313 0 1 C0 0.67 0 0.34 0 0 Z " fill="#EF6080" transform="translate(1286,293)"/>
<path d="M0 0 C-7.2385335 3.23540512 -13.22859609 3.09141544 -21 2 C-21 1.67 -21 1.34 -21 1 C-18.25091555 0.63685675 -15.50116549 0.28419159 -12.75 -0.0625 C-11.97269531 -0.16626953 -11.19539062 -0.27003906 -10.39453125 -0.37695312 C-9.64042969 -0.47041016 -8.88632812 -0.56386719 -8.109375 -0.66015625 C-7.41811523 -0.74918213 -6.72685547 -0.83820801 -6.01464844 -0.92993164 C-3.82569152 -1.00606235 -2.08994187 -0.6249336 0 0 Z " fill="#8D67D0" transform="translate(545,271)"/>
<path d="M0 0 C2.31 1.98 4.62 3.96 7 6 C6.01 6.99 5.02 7.98 4 9 C3.34 9 2.68 9 2 9 C1.67 7.02 1.34 5.04 1 3 C0.01 2.67 -0.98 2.34 -2 2 C-1.34 2 -0.68 2 0 2 C0 1.34 0 0.68 0 0 Z " fill="#B945C8" transform="translate(861,256)"/>
<path d="M0 0 C0.99 0.33 1.98 0.66 3 1 C2.67 1.66 2.34 2.32 2 3 C6.29 3 10.58 3 15 3 C15 3.33 15 3.66 15 4 C8.73 4 2.46 4 -4 4 C-4.33 3.34 -4.66 2.68 -5 2 C-3.35 2 -1.7 2 0 2 C0 1.34 0 0.68 0 0 Z " fill="#D064BA" transform="translate(894,161)"/>
<path d="M0 0 C4.10958767 1.45044271 7.43258745 3.51110752 11 6 C9.02 6.99 9.02 6.99 7 8 C6.67 7.34 6.34 6.68 6 6 C4.7625 5.566875 4.7625 5.566875 3.5 5.125 C1 4 1 4 0.1875 1.875 C0.125625 1.25625 0.06375 0.6375 0 0 Z " fill="#CE4994" transform="translate(947,137)"/>
<path d="M0 0 C-3.7559214 3.42931954 -8.23466745 4.56429083 -13 6 C-12.67 5.01 -12.34 4.02 -12 3 C-9.6875 1.9375 -9.6875 1.9375 -7 1 C-6.29875 0.608125 -5.5975 0.21625 -4.875 -0.1875 C-3 -1 -3 -1 0 0 Z " fill="#BC4DC6" transform="translate(945,299)"/>
<path d="M0 0 C0 0.66 0 1.32 0 2 C0.94875 2.309375 1.8975 2.61875 2.875 2.9375 C6 4 6 4 8 5 C8 5.66 8 6.32 8 7 C-1.59453303 4.10933941 -1.59453303 4.10933941 -5 1 C-3 0 -3 0 0 0 Z " fill="#B654D4" transform="translate(857,298)"/>
<path d="M0 0 C0.33 0 0.66 0 1 0 C1.08078641 2.12438339 1.13909141 4.2496323 1.1875 6.375 C1.22230469 7.55835938 1.25710937 8.74171875 1.29296875 9.9609375 C1.19628906 10.96382813 1.09960938 11.96671875 1 13 C0.01 13.66 -0.98 14.32 -2 15 C-1.85973717 12.68715544 -1.71264442 10.37472409 -1.5625 8.0625 C-1.48128906 6.77472656 -1.40007812 5.48695313 -1.31640625 4.16015625 C-1 1 -1 1 0 0 Z " fill="#6356B7" transform="translate(189,290)"/>
<path d="M0 0 C0.33 0 0.66 0 1 0 C1.99 5.94 2.98 11.88 4 18 C3.34 18 2.68 18 2 18 C-0.37590142 14.29583874 -0.20500286 11.07015427 -0.125 6.75 C-0.10695313 5.48671875 -0.08890625 4.2234375 -0.0703125 2.921875 C-0.04710937 1.95765625 -0.02390625 0.9934375 0 0 Z " fill="#ED808A" transform="translate(1291,224)"/>
<path d="M0 0 C-0.33 1.65 -0.66 3.3 -1 5 C-2.1446875 4.938125 -2.1446875 4.938125 -3.3125 4.875 C-6.22718416 4.77919176 -6.22718416 4.77919176 -9 7 C-9.66 6.34 -10.32 5.68 -11 5 C-9.54462432 4.16151196 -8.08559627 3.32936066 -6.625 2.5 C-5.81289063 2.0359375 -5.00078125 1.571875 -4.1640625 1.09375 C-2 0 -2 0 0 0 Z " fill="#CF43AF" transform="translate(870,132)"/>
<path d="M0 0 C2.97 0.33 5.94 0.66 9 1 C8.01 1.495 8.01 1.495 7 2 C7.33 2.99 7.66 3.98 8 5 C5.69 4.67 3.38 4.34 1 4 C0.67 2.68 0.34 1.36 0 0 Z " fill="#9A53CE" transform="translate(546,127)"/>
<path d="M0 0 C0 0.33 0 0.66 0 1 C-2.58075024 1.55816226 -5.16308901 2.0968763 -7.75 2.625 C-8.47960938 2.78484375 -9.20921875 2.9446875 -9.9609375 3.109375 C-15.43696596 4.20458069 -15.43696596 4.20458069 -18.515625 3.0859375 C-19.00546875 2.72757813 -19.4953125 2.36921875 -20 2 C-13.2168636 0.57997892 -6.93302093 -0.22731216 0 0 Z " fill="#E66C8D" transform="translate(1114,126)"/>
<path d="M0 0 C5.75 1.75 5.75 1.75 8 4 C2.06 3.67 -3.88 3.34 -10 3 C-10 2.67 -10 2.34 -10 2 C-9.04287109 1.90912109 -9.04287109 1.90912109 -8.06640625 1.81640625 C-6.82697266 1.69072266 -6.82697266 1.69072266 -5.5625 1.5625 C-4.73878906 1.48128906 -3.91507813 1.40007812 -3.06640625 1.31640625 C-1.01337975 1.21069185 -1.01337975 1.21069185 0 0 Z " fill="#C6259F" transform="translate(906,161)"/>
<path d="M0 0 C0.66 0 1.32 0 2 0 C-0.89066059 9.59453303 -0.89066059 9.59453303 -4 13 C-5.60031344 9.79937313 -4.03173691 7.27728194 -3 4 C-2.34 4 -1.68 4 -1 4 C-0.67 2.68 -0.34 1.36 0 0 Z " fill="#8A66CC" transform="translate(407,156)"/>
<path d="M0 0 C7.75 0.875 7.75 0.875 10 2 C10 2.66 10 3.32 10 4 C8.375 4.6875 8.375 4.6875 6 5 C2.75 3.5625 2.75 3.5625 0 2 C0 1.34 0 0.68 0 0 Z " fill="#BF49BD" transform="translate(756,129)"/>
<path d="M0 0 C4.62 0.66 9.24 1.32 14 2 C14 2.33 14 2.66 14 3 C12.02 3 10.04 3 8 3 C8 3.66 8 4.32 8 5 C6.68 5 5.36 5 4 5 C4 4.34 4 3.68 4 3 C2.68 2.34 1.36 1.68 0 1 C0 0.67 0 0.34 0 0 Z " fill="#EB7A81" transform="translate(1322,269)"/>
<path d="M0 0 C-0.66 1.32 -1.32 2.64 -2 4 C-2.66 4 -3.32 4 -4 4 C-4 4.66 -4 5.32 -4 6 C-6.64 5.34 -9.28 4.68 -12 4 C-12 3.67 -12 3.34 -12 3 C-10.37604003 2.49663233 -8.75079459 1.99741024 -7.125 1.5 C-6.22007813 1.2215625 -5.31515625 0.943125 -4.3828125 0.65625 C-2 0 -2 0 0 0 Z " fill="#D75193" transform="translate(1145,267)"/>
<path d="M0 0 C2.39073445 3.82517513 2.55966552 7.59665524 3 12 C2.01 12 1.02 12 0 12 C-0.76173392 7.6835078 -1.16063604 4.25566547 0 0 Z " fill="#A056CE" transform="translate(614,185)"/>
<path d="M0 0 C0.66 0.66 1.32 1.32 2 2 C1.04270084 3.12588014 0.08412105 4.2506715 -0.875 5.375 C-1.40867187 6.00148437 -1.94234375 6.62796875 -2.4921875 7.2734375 C-3.61432007 8.55836651 -4.79371975 9.79371975 -6 11 C-6.3125 8.8125 -6.3125 8.8125 -6 6 C-3.5625 3.25 -3.5625 3.25 -1 1 C-0.67 0.67 -0.34 0.34 0 0 Z " fill="#AF55D7" transform="translate(709,171)"/>
<path d="M0 0 C1 2 1 2 0.44140625 4.1640625 C0.15136719 4.97617188 -0.13867188 5.78828125 -0.4375 6.625 C-0.72496094 7.44226563 -1.01242187 8.25953125 -1.30859375 9.1015625 C-1.65083984 10.04128906 -1.65083984 10.04128906 -2 11 C-3.32 10.67 -4.64 10.34 -6 10 C-4.6302836 6.00499382 -2.74277578 3.19990508 0 0 Z " fill="#F57E76" transform="translate(1270,156)"/>
<path d="M0 0 C2 2 2 2 2 5 C5.96 5 9.92 5 14 5 C14 5.33 14 5.66 14 6 C9.38 6 4.76 6 0 6 C-1 2 -1 2 0 0 Z " fill="#5656A0" transform="translate(3,299)"/>
<path d="M0 0 C0.33 0.99 0.66 1.98 1 3 C-2.67410785 4.17571451 -6.16929183 4.07366746 -10 4 C-4.7826087 0 -4.7826087 0 0 0 Z " fill="#BF3BCE" transform="translate(931,303)"/>
<path d="M0 0 C1.32 0 2.64 0 4 0 C4 0.66 4 1.32 4 2 C4.66 2 5.32 2 6 2 C6.99 3.485 6.99 3.485 8 5 C8.99 5.66 9.98 6.32 11 7 C10.34 7.66 9.68 8.32 9 9 C7.49704815 7.69088122 5.99770689 6.37761608 4.5 5.0625 C3.6646875 4.33160156 2.829375 3.60070312 1.96875 2.84765625 C1.3190625 2.23792969 0.669375 1.62820313 0 1 C0 0.67 0 0.34 0 0 Z " fill="#B859D5" transform="translate(832,284)"/>
<path d="M0 0 C2.4375 0.375 2.4375 0.375 5 1 C5.33 1.66 5.66 2.32 6 3 C6.99 3.66 7.98 4.32 9 5 C9 5.99 9 6.98 9 8 C4.7257442 6.4169423 2.73468206 3.49431596 0 0 Z " fill="#CF4FA7" transform="translate(1051,282)"/>
<path d="M0 0 C1.98 0.99 1.98 0.99 4 2 C3.979375 2.78375 3.95875 3.5675 3.9375 4.375 C3.81315937 6.98114961 3.81315937 6.98114961 5 9 C4.34 9.66 3.68 10.32 3 11 C2.49384702 9.73160474 1.99530901 8.46016898 1.5 7.1875 C1.2215625 6.47980469 0.943125 5.77210938 0.65625 5.04296875 C0 3 0 3 0 0 Z " fill="#B451D2" transform="translate(814,251)"/>
<path d="M0 0 C1.61725534 3.00950123 2.67582623 5.97103608 3.625 9.25 C3.88539063 10.14203125 4.14578125 11.0340625 4.4140625 11.953125 C4.60742188 12.62859375 4.80078125 13.3040625 5 14 C4.34 14 3.68 14 3 14 C0.88254802 11.80564299 0.05410335 10.47610949 -0.29296875 7.421875 C-0.25816406 6.54015625 -0.22335937 5.6584375 -0.1875 4.75 C-0.16042969 3.85796875 -0.13335938 2.9659375 -0.10546875 2.046875 C-0.07066406 1.37140625 -0.03585937 0.6959375 0 0 Z " fill="#BA53CA" transform="translate(851,235)"/>
<path d="M0 0 C0.33 0.66 0.66 1.32 1 2 C-1.19566645 8.47143795 -1.19566645 8.47143795 -4.1875 10.4375 C-5.0846875 10.7159375 -5.0846875 10.7159375 -6 11 C-4.54955729 6.89041233 -2.48889248 3.56741255 0 0 Z " fill="#E25692" transform="translate(1048,157)"/>
<path d="M0 0 C0.66 0 1.32 0 2 0 C0.45730076 4.72065967 -1.07794619 9.41664092 -3 14 C-4.37095624 10.30962722 -3.60010967 8.29116165 -2.0625 4.75 C-1.68222656 3.85796875 -1.30195313 2.9659375 -0.91015625 2.046875 C-0.60980469 1.37140625 -0.30945313 0.6959375 0 0 Z " fill="#8B6ACB" transform="translate(414,139)"/>
<path d="M0 0 C4.29 0.33 8.58 0.66 13 1 C13 1.33 13 1.66 13 2 C3.58997722 3.33257403 3.58997722 3.33257403 -1 2 C-0.67 1.34 -0.34 0.68 0 0 Z " fill="#806FB3" transform="translate(164,84)"/>
<path d="M0 0 C0.99 0.33 1.98 0.66 3 1 C1.02 5.455 1.02 5.455 -1 10 C-1.33 10 -1.66 10 -2 10 C-2.625 7.125 -2.625 7.125 -3 4 C-2.34 3.34 -1.68 2.68 -1 2 C-0.67 1.34 -0.34 0.68 0 0 Z " fill="#CB3EB3" transform="translate(982,252)"/>
<path d="M0 0 C0.33 0 0.66 0 1 0 C1.33 3.63 1.66 7.26 2 11 C1.01 11.33 0.02 11.66 -1 12 C-1.02687279 10.18757948 -1.04633715 8.37504767 -1.0625 6.5625 C-1.07410156 5.55316406 -1.08570313 4.54382813 -1.09765625 3.50390625 C-1 1 -1 1 0 0 Z " fill="#D81CB4" transform="translate(951,220)"/>
<path d="M0 0 C1.04293785 3.38954801 1.30754089 6.46327974 1 10 C0.01 10.66 -0.98 11.32 -2 12 C-2 8.37 -2 4.74 -2 1 C-1.34 0.67 -0.68 0.34 0 0 Z " fill="#CE2790" transform="translate(1034,213)"/>
<path d="M0 0 C0.99 0.495 0.99 0.495 2 1 C2.4140625 3.28515625 2.4140625 3.28515625 2.625 6.0625 C2.69976563 6.98160156 2.77453125 7.90070313 2.8515625 8.84765625 C2.92503906 9.91306641 2.92503906 9.91306641 3 11 C2.01 11 1.02 11 0 11 C0 7.37 0 3.74 0 0 Z " fill="#D51FAF" transform="translate(950,204)"/>
<path d="M0 0 C-0.99 1.485 -0.99 1.485 -2 3 C-5.625 3.6875 -5.625 3.6875 -9 4 C-9.33 3.34 -9.66 2.68 -10 2 C-6.3558226 -0.4294516 -4.28758728 -0.16179575 0 0 Z " fill="#C639A8" transform="translate(886,164)"/>
<path d="M0 0 C1.10336858 3.31010574 1.13531135 5.6813976 0 9 C-2.05078125 10.1484375 -2.05078125 10.1484375 -4 11 C-3.52269162 9.5410574 -3.04308958 8.08286504 -2.5625 6.625 C-2.29566406 5.81289062 -2.02882813 5.00078125 -1.75390625 4.1640625 C-1 2 -1 2 0 0 Z " fill="#8568CB" transform="translate(368,149)"/>
<path d="M0 0 C0.66 0.33 1.32 0.66 2 1 C-0.23795825 4.35693737 -1.2189697 4.91970563 -5 6 C-7.1640625 5.546875 -7.1640625 5.546875 -9 5 C-7.54735962 4.1361871 -6.0876837 3.28419546 -4.625 2.4375 C-3.40683594 1.72400391 -3.40683594 1.72400391 -2.1640625 0.99609375 C-1.44992187 0.66738281 -0.73578125 0.33867187 0 0 Z " fill="#9164CF" transform="translate(483,135)"/>
<path d="M0 0 C0.66 0 1.32 0 2 0 C2 0.66 2 1.32 2 2 C2.66 2.33 3.32 2.66 4 3 C-1.445 4.485 -1.445 4.485 -7 6 C-6.34 4.68 -5.68 3.36 -5 2 C-3.68 2 -2.36 2 -1 2 C-0.67 1.34 -0.34 0.68 0 0 Z " fill="#F1767B" transform="translate(1377,301)"/>
<path d="M0 0 C0.99 0.33 1.98 0.66 3 1 C1.515 4.96 1.515 4.96 0 9 C-2 7 -2 7 -2.125 4.375 C-2.08375 3.59125 -2.0425 2.8075 -2 2 C-1.34 2 -0.68 2 0 2 C0 1.34 0 0.68 0 0 Z " fill="#825ECD" transform="translate(392,189)"/>
<path d="M0 0 C1.32 0 2.64 0 4 0 C4 0.66 4 1.32 4 2 C3.01 2.33 2.02 2.66 1 3 C1 4.65 1 6.3 1 8 C0.01 8.495 0.01 8.495 -1 9 C-1.625 5.625 -1.625 5.625 -2 2 C-1.34 1.34 -0.68 0.68 0 0 Z " fill="#775EC7" transform="translate(232,131)"/>
<path d="M0 0 C5.73842251 -0.20413361 10.60539047 -0.27141454 16 2 C15.67 2.66 15.34 3.32 15 4 C14.45859375 3.85691406 13.9171875 3.71382812 13.359375 3.56640625 C10.67007168 2.92079535 7.97254755 2.4236692 5.25 1.9375 C4.26515625 1.76089844 3.2803125 1.58429687 2.265625 1.40234375 C1.14414063 1.20318359 1.14414063 1.20318359 0 1 C0 0.67 0 0.34 0 0 Z " fill="#8E7BC7" transform="translate(165,37)"/>
<path d="M0 0 C0 3.57575896 -1.08840607 5.05295935 -3 8 C-4.32 7.67 -5.64 7.34 -7 7 C-4.66666667 4.66666667 -2.33333333 2.33333333 0 0 Z " fill="#C852BD" transform="translate(936,257)"/>
<path d="M0 0 C1.44977894 2.34112451 2.04314411 3.5796929 1.7578125 6.359375 C1.54898438 7.14828125 1.34015625 7.9371875 1.125 8.75 C0.92132812 9.54921875 0.71765625 10.3484375 0.5078125 11.171875 C0.34023438 11.77515625 0.17265625 12.3784375 0 13 C-2 11 -2 11 -2.25 8.75 C-1.96379343 5.60172773 -1.09940961 2.95466333 0 0 Z " fill="#AF53D9" transform="translate(701,180)"/>
<path d="M0 0 C0.33 0.66 0.66 1.32 1 2 C1.99 2.33 2.98 2.66 4 3 C3.38125 3.0825 2.7625 3.165 2.125 3.25 C-0.17972859 3.79394438 -0.17972859 3.79394438 -1.0625 6 C-1.5265625 6.99 -1.5265625 6.99 -2 8 C-2.99 8.33 -3.98 8.66 -5 9 C-3.7508258 5.54074837 -2.32472205 2.85306797 0 0 Z " fill="#AE53D5" transform="translate(674,149)"/>
<path d="M0 0 C-1.76414623 0.72482748 -3.53662904 1.42939296 -5.3125 2.125 C-6.79169922 2.71667969 -6.79169922 2.71667969 -8.30078125 3.3203125 C-9.19152344 3.54460937 -10.08226562 3.76890625 -11 4 C-11.99 3.34 -12.98 2.68 -14 2 C-12.42085985 1.46658816 -10.83645613 0.94874237 -9.25 0.4375 C-8.36828125 0.14746094 -7.4865625 -0.14257812 -6.578125 -0.44140625 C-3.92165684 -1.01697435 -2.52968894 -0.89248371 0 0 Z " fill="#9B69CF" transform="translate(506,129)"/>
<path d="M0 0 C1.32 0 2.64 0 4 0 C3.45276317 3.37462715 2.9451 5.08235 1 8 C0.67 5.36 0.34 2.72 0 0 Z " fill="#B54DD1" transform="translate(812,243)"/>
<path d="M0 0 C2.49505962 2.49505962 2.35948376 3.67328888 2.625 7.125 C2.69976562 8.03507813 2.77453125 8.94515625 2.8515625 9.8828125 C2.92503906 10.93082031 2.92503906 10.93082031 3 12 C0.89366282 10.29171079 0.06198392 9.47851584 -0.29296875 6.73828125 C-0.25816406 5.93777344 -0.22335937 5.13726562 -0.1875 4.3125 C-0.16042969 3.50425781 -0.13335937 2.69601563 -0.10546875 1.86328125 C-0.07066406 1.24839844 -0.03585937 0.63351563 0 0 Z " fill="#8D69CA" transform="translate(477,226)"/>
<path d="M0 0 C1.875 0.25 1.875 0.25 4 1 C5.25 3.0625 5.25 3.0625 6 5 C6.66 5 7.32 5 8 5 C7.67 6.32 7.34 7.64 7 9 C5.83037314 7.69013727 4.66437056 6.3770374 3.5 5.0625 C2.8503125 4.33160156 2.200625 3.60070312 1.53125 2.84765625 C0 1 0 1 0 0 Z " fill="#E96A8D" transform="translate(1154,175)"/>
<path d="M0 0 C0.66 0 1.32 0 2 0 C1.67 3.3 1.34 6.6 1 10 C0.34 9.67 -0.32 9.34 -1 9 C-1.09765625 2.84765625 -1.09765625 2.84765625 -1 1 C-0.67 0.67 -0.34 0.34 0 0 Z " fill="#7568BA" transform="translate(107,143)"/>
<path d="M0 0 C3.63 0 7.26 0 11 0 C11 0.66 11 1.32 11 2 C6.58937864 3.0257259 4.07369424 3.03684712 0 1 C0 0.67 0 0.34 0 0 Z " fill="#7256C9" transform="translate(162,38)"/>
<path d="M0 0 C0.33 0.99 0.66 1.98 1 3 C-1.64 3 -4.28 3 -7 3 C-7.33 2.34 -7.66 1.68 -8 1 C-5.10765685 0.17361624 -3.11257569 0 0 0 Z " fill="#AE51C4" transform="translate(889,307)"/>
<path d="M0 0 C0 0.99 0 1.98 0 3 C-1.8125 3.6875 -1.8125 3.6875 -4 4 C-5.75 2.5625 -5.75 2.5625 -7 1 C-4.53721199 -0.231394 -2.7204945 -0.07159196 0 0 Z " fill="#D033A4" transform="translate(1075,295)"/>
<path d="M0 0 C5.875 3.75 5.875 3.75 7 6 C4.36 5.67 1.72 5.34 -1 5 C-0.67 3.35 -0.34 1.7 0 0 Z " fill="#A252D5" transform="translate(584,142)"/>
<path d="M0 0 C4 2 4 2 4.875 4.5 C4.91625 5.325 4.9575 6.15 5 7 C4.34 7.66 3.68 8.32 3 9 C2.01 6.03 1.02 3.06 0 0 Z " fill="#806AC9" transform="translate(232,141)"/>
<path d="M0 0 C0 0.99 0 1.98 0 3 C-2.3125 5.25 -2.3125 5.25 -5 7 C-5.99 6.67 -6.98 6.34 -8 6 C-5.36 4.02 -2.72 2.04 0 0 Z " fill="#9069CC" transform="translate(473,141)"/>
<path d="M0 0 C4.42857143 5.14285714 4.42857143 5.14285714 5 9 C4.01 9.495 4.01 9.495 3 10 C1.68 7.03 0.36 4.06 -1 1 C-0.67 0.67 -0.34 0.34 0 0 Z " fill="#8267CA" transform="translate(446,259)"/>
<path d="M0 0 C0.66 0.33 1.32 0.66 2 1 C2 1.66 2 2.32 2 3 C1.34 3 0.68 3 0 3 C0 4.65 0 6.3 0 8 C-0.99 8 -1.98 8 -3 8 C-2.37240135 5.07120629 -1.41377341 2.63904371 0 0 Z " fill="#C336B8" transform="translate(938,255)"/>
<path d="M0 0 C0.99 0.33 1.98 0.66 3 1 C0.525 4.465 0.525 4.465 -2 8 C-3 4 -3 4 -2 1 C-1.34 0.67 -0.68 0.34 0 0 Z " fill="#C14DBA" transform="translate(860,178)"/>
<path d="M0 0 C2.64465038 3.1254959 3.84414715 6.08788267 5 10 C4.34 10 3.68 10 3 10 C2.34 8.02 1.68 6.04 1 4 C0.34 4 -0.32 4 -1 4 C-0.67 2.68 -0.34 1.36 0 0 Z " fill="#F4687F" transform="translate(1199,168)"/>
<path d="M0 0 C5.75 0.875 5.75 0.875 8 2 C8 2.66 8 3.32 8 4 C6.35 4 4.7 4 3 4 C2.67 3.01 2.34 2.02 2 1 C1.34 0.67 0.68 0.34 0 0 Z " fill="#EE6074" transform="translate(1165,137)"/>
<path d="M0 0 C0.99 0.33 1.98 0.66 3 1 C2.67 1.66 2.34 2.32 2 3 C-1.96 3 -5.92 3 -10 3 C-10 2.67 -10 2.34 -10 2 C-2.25 0.875 -2.25 0.875 0 2 C0 1.34 0 0.68 0 0 Z " fill="#8D5BC8" transform="translate(696,302)"/>
<path d="M0 0 C3.96 0.33 7.92 0.66 12 1 C12 1.33 12 1.66 12 2 C10.37585622 2.19477739 8.75063577 2.38059458 7.125 2.5625 C6.22007813 2.66691406 5.31515625 2.77132813 4.3828125 2.87890625 C2 3 2 3 0 2 C0 1.34 0 0.68 0 0 Z " fill="#D664A9" transform="translate(1104,270)"/>
<path d="M0 0 C2.29633824 3.44450737 2.54016485 5.93812283 3 10 C0 8 0 8 -0.75 5.5625 C-1 3 -1 3 0 0 Z " fill="#D252A4" transform="translate(984,180)"/>
<path d="M0 0 C2.475 0.495 2.475 0.495 5 1 C5.12375 1.639375 5.2475 2.27875 5.375 2.9375 C5.684375 3.9584375 5.684375 3.9584375 6 5 C6.66 5.33 7.32 5.66 8 6 C5 6 5 6 3.61328125 4.6875 C2.40885417 3.125 1.20442708 1.5625 0 0 Z " fill="#F78379" transform="translate(1374,174)"/>
<path d="M0 0 C2.625 0.375 2.625 0.375 5 1 C2.68143083 2.54571278 0.49361571 3.79618552 -2 5 C-2 2 -2 2 0 0 Z " fill="#B54DE2" transform="translate(714,167)"/>
<path d="M0 0 C2.52588702 2.36292656 3.88820837 3.66462511 5 7 C4.34 7 3.68 7 3 7 C3 6.34 3 5.68 3 5 C1.68 5 0.36 5 -1 5 C-0.67 3.35 -0.34 1.7 0 0 Z " fill="#CE4D98" transform="translate(972,158)"/>
<path d="M0 0 C0.66 0 1.32 0 2 0 C1.71890887 1.64767247 1.42481474 3.29313145 1.125 4.9375 C0.96257812 5.85402344 0.80015625 6.77054688 0.6328125 7.71484375 C0.42398438 8.46894531 0.21515625 9.22304687 0 10 C-0.99 10.495 -0.99 10.495 -2 11 C-1.85957123 9.35369672 -1.71250671 7.70795821 -1.5625 6.0625 C-1.48128906 5.14597656 -1.40007812 4.22945312 -1.31640625 3.28515625 C-1 1 -1 1 0 0 Z " fill="#786DB6" transform="translate(105,156)"/>
<path d="M0 0 C2 4 2 4 1.3125 6.1875 C0 8 0 8 -3 9 C-2.01 6.03 -1.02 3.06 0 0 Z " fill="#886DC0" transform="translate(372,139)"/>
<path d="M0 0 C1.65 1.65 3.3 3.3 5 5 C3.68 5.33 2.36 5.66 1 6 C1 5.34 1 4.68 1 4 C0.01 3.67 -0.98 3.34 -2 3 C-1.34 2.01 -0.68 1.02 0 0 Z " fill="#F48565" transform="translate(1386,141)"/>
<path d="M0 0 C1.258125 -0.04125 2.51625 -0.0825 3.8125 -0.125 C4.52019531 -0.14820313 5.22789062 -0.17140625 5.95703125 -0.1953125 C8 0 8 0 11 2 C4.6 3.35384615 4.6 3.35384615 1.5625 1.5625 C1.046875 1.046875 0.53125 0.53125 0 0 Z " fill="#D43FA3" transform="translate(922,129)"/>
<path d="M0 0 C2.875 -0.125 2.875 -0.125 6 0 C6.66 0.66 7.32 1.32 8 2 C5.69 2.33 3.38 2.66 1 3 C0.67 2.01 0.34 1.02 0 0 Z " fill="#D6499C" transform="translate(1140,306)"/>
<path d="M0 0 C2.875 -0.1875 2.875 -0.1875 6 0 C6.66 0.99 7.32 1.98 8 3 C5.36 2.67 2.72 2.34 0 2 C0 1.34 0 0.68 0 0 Z " fill="#B84CD8" transform="translate(873,306)"/>
<path d="M0 0 C6.52307692 0.61538462 6.52307692 0.61538462 8.9375 2.5625 C9.288125 3.036875 9.63875 3.51125 10 4 C9.01 4.495 9.01 4.495 8 5 C6.0546875 4.22265625 6.0546875 4.22265625 3.875 3.0625 C3.15054687 2.68222656 2.42609375 2.30195313 1.6796875 1.91015625 C1.12539062 1.60980469 0.57109375 1.30945313 0 1 C0 0.67 0 0.34 0 0 Z " fill="#EC678D" transform="translate(1142,168)"/>
</svg>
